<mxfile host="app.diagrams.net" modified="2024-05-27T10:32:36.067Z" agent="Mozilla/5.0 (Windows NT 10.0; Win64; x64; rv:109.0) Gecko/20100101 Firefox/115.0" etag="_P-qqeaPSSeRWVkyXP_1" version="24.4.7" type="github">
  <diagram name="Seite-1" id="fQPDiJ9XMMIzPtYZS55j">
    <mxGraphModel dx="2440" dy="1311" grid="1" gridSize="10" guides="1" tooltips="1" connect="1" arrows="1" fold="1" page="1" pageScale="1" pageWidth="827" pageHeight="1169" background="#000000" math="0" shadow="0">
      <root>
        <mxCell id="0" />
        <mxCell id="1" parent="0" />
        <mxCell id="9JMxjr_bGyoQFpbuwBPj-1" value="" style="ellipse;fillColor=#66B2FF;strokeColor=none;html=1;fontColor=#FFFFFF;sketch=1;hachureGap=4;jiggle=2;curveFitting=1;fontFamily=Architects Daughter;fontSource=https%3A%2F%2Ffonts.googleapis.com%2Fcss%3Ffamily%3DArchitects%2BDaughter;" vertex="1" parent="1">
          <mxGeometry x="316" y="440" width="730" height="740" as="geometry" />
        </mxCell>
        <mxCell id="9JMxjr_bGyoQFpbuwBPj-2" value="" style="ellipse;fillColor=#CC6600;strokeColor=none;html=1;fontColor=#FFFFFF;sketch=1;hachureGap=4;jiggle=2;curveFitting=1;fontFamily=Architects Daughter;fontSource=https%3A%2F%2Ffonts.googleapis.com%2Fcss%3Ffamily%3DArchitects%2BDaughter;" vertex="1" parent="1">
          <mxGeometry x="449" y="840" width="730" height="740" as="geometry" />
        </mxCell>
        <mxCell id="9JMxjr_bGyoQFpbuwBPj-3" value="&lt;br&gt;&lt;br&gt;&lt;div&gt;&lt;br&gt;&lt;/div&gt;" style="ellipse;fillColor=#006600;strokeColor=none;html=1;fontColor=#FFFFFF;sketch=1;hachureGap=4;jiggle=2;curveFitting=1;fontFamily=Architects Daughter;fontSource=https%3A%2F%2Ffonts.googleapis.com%2Fcss%3Ffamily%3DArchitects%2BDaughter;" vertex="1" parent="1">
          <mxGeometry x="647" y="439" width="750" height="741" as="geometry" />
        </mxCell>
        <mxCell id="9JMxjr_bGyoQFpbuwBPj-4" value="Eldorado" style="text;fontSize=24;align=center;verticalAlign=middle;html=1;fontColor=#FFFFFF;fontFamily=Architects Daughter;fontSource=https%3A%2F%2Ffonts.googleapis.com%2Fcss%3Ffamily%3DArchitects%2BDaughter;" vertex="1" parent="1">
          <mxGeometry x="1130" y="605" width="190" height="70" as="geometry" />
        </mxCell>
        <mxCell id="9JMxjr_bGyoQFpbuwBPj-5" value="Coscine" style="text;fontSize=24;align=center;verticalAlign=middle;html=1;fontColor=#FFFFFF;fontFamily=Architects Daughter;fontSource=https%3A%2F%2Ffonts.googleapis.com%2Fcss%3Ffamily%3DArchitects%2BDaughter;" vertex="1" parent="1">
          <mxGeometry x="750" y="550" width="190" height="70" as="geometry" />
        </mxCell>
        <mxCell id="9JMxjr_bGyoQFpbuwBPj-6" value="Chemotion" style="text;fontSize=24;align=center;verticalAlign=middle;html=1;fontColor=#FFFFFF;fontFamily=Architects Daughter;fontSource=https%3A%2F%2Ffonts.googleapis.com%2Fcss%3Ffamily%3DArchitects%2BDaughter;" vertex="1" parent="1">
          <mxGeometry x="1130" y="730" width="190" height="70" as="geometry" />
        </mxCell>
        <mxCell id="9JMxjr_bGyoQFpbuwBPj-27" style="edgeStyle=orthogonalEdgeStyle;rounded=0;sketch=1;hachureGap=4;jiggle=2;curveFitting=1;orthogonalLoop=1;jettySize=auto;html=1;exitX=0.75;exitY=1;exitDx=0;exitDy=0;fontFamily=Architects Daughter;fontSource=https%3A%2F%2Ffonts.googleapis.com%2Fcss%3Ffamily%3DArchitects%2BDaughter;" edge="1" parent="1" source="9JMxjr_bGyoQFpbuwBPj-7">
          <mxGeometry relative="1" as="geometry">
            <mxPoint x="300" y="360" as="targetPoint" />
          </mxGeometry>
        </mxCell>
        <mxCell id="9JMxjr_bGyoQFpbuwBPj-7" value="&lt;font style=&quot;font-size: 24px;&quot;&gt;DuePublixo&lt;/font&gt;" style="text;align=center;html=1;fontColor=#FFFFFF;fontSize=16;fontFamily=Architects Daughter;fontSource=https%3A%2F%2Ffonts.googleapis.com%2Fcss%3Ffamily%3DArchitects%2BDaughter;" vertex="1" parent="1">
          <mxGeometry x="449" y="670" width="115" height="40" as="geometry" />
        </mxCell>
        <mxCell id="9JMxjr_bGyoQFpbuwBPj-8" value="&lt;font style=&quot;font-size: 24px;&quot;&gt;GitLab&lt;/font&gt;" style="text;align=center;html=1;fontColor=#FFFFFF;fontSize=16;fontFamily=Architects Daughter;fontSource=https%3A%2F%2Ffonts.googleapis.com%2Fcss%3Ffamily%3DArchitects%2BDaughter;" vertex="1" parent="1">
          <mxGeometry x="810" y="650" width="40" height="40" as="geometry" />
        </mxCell>
        <mxCell id="9JMxjr_bGyoQFpbuwBPj-15" style="edgeStyle=orthogonalEdgeStyle;rounded=0;sketch=1;hachureGap=4;jiggle=2;curveFitting=1;orthogonalLoop=1;jettySize=auto;html=1;exitX=1;exitY=0.5;exitDx=0;exitDy=0;fontFamily=Architects Daughter;fontSource=https%3A%2F%2Ffonts.googleapis.com%2Fcss%3Ffamily%3DArchitects%2BDaughter;" edge="1" parent="1" source="9JMxjr_bGyoQFpbuwBPj-9" target="9JMxjr_bGyoQFpbuwBPj-3">
          <mxGeometry relative="1" as="geometry" />
        </mxCell>
        <mxCell id="9JMxjr_bGyoQFpbuwBPj-9" value="&lt;font style=&quot;font-size: 24px;&quot;&gt;eLabFTW&lt;/font&gt;" style="text;align=center;html=1;fontColor=#FFFFFF;fontSize=16;fontFamily=Architects Daughter;fontSource=https%3A%2F%2Ffonts.googleapis.com%2Fcss%3Ffamily%3DArchitects%2BDaughter;" vertex="1" parent="1">
          <mxGeometry x="820" y="610" width="40" height="40" as="geometry" />
        </mxCell>
        <mxCell id="9JMxjr_bGyoQFpbuwBPj-10" value="&lt;font style=&quot;font-size: 24px;&quot;&gt;Sciformation&lt;/font&gt;" style="text;align=center;html=1;fontColor=#FFFFFF;fontSize=16;fontFamily=Architects Daughter;fontSource=https%3A%2F%2Ffonts.googleapis.com%2Fcss%3Ffamily%3DArchitects%2BDaughter;" vertex="1" parent="1">
          <mxGeometry x="1130" y="680" width="170" height="30" as="geometry" />
        </mxCell>
        <mxCell id="9JMxjr_bGyoQFpbuwBPj-16" value="&lt;font style=&quot;font-size: 24px;&quot; color=&quot;#fcfcfc&quot;&gt;Sciebo&lt;/font&gt;" style="text;whiteSpace=wrap;html=1;fontFamily=Architects Daughter;fontSource=https%3A%2F%2Ffonts.googleapis.com%2Fcss%3Ffamily%3DArchitects%2BDaughter;" vertex="1" parent="1">
          <mxGeometry x="810" y="980" width="110" height="50" as="geometry" />
        </mxCell>
        <mxCell id="9JMxjr_bGyoQFpbuwBPj-17" value="&lt;font style=&quot;font-size: 24px;&quot; color=&quot;#fcfcfc&quot;&gt;Citavi&lt;/font&gt;" style="text;whiteSpace=wrap;html=1;fontFamily=Architects Daughter;fontSource=https%3A%2F%2Ffonts.googleapis.com%2Fcss%3Ffamily%3DArchitects%2BDaughter;" vertex="1" parent="1">
          <mxGeometry x="1110" y="515" width="110" height="50" as="geometry" />
        </mxCell>
        <mxCell id="9JMxjr_bGyoQFpbuwBPj-18" value="&lt;font style=&quot;font-size: 24px;&quot; color=&quot;#fcfcfc&quot;&gt;B2Drop&lt;/font&gt;" style="text;whiteSpace=wrap;html=1;fontFamily=Architects Daughter;fontSource=https%3A%2F%2Ffonts.googleapis.com%2Fcss%3Ffamily%3DArchitects%2BDaughter;" vertex="1" parent="1">
          <mxGeometry x="1190" y="950" width="110" height="50" as="geometry" />
        </mxCell>
        <mxCell id="9JMxjr_bGyoQFpbuwBPj-19" value="&lt;font style=&quot;font-size: 24px;&quot; color=&quot;#fcfcfc&quot;&gt;RDMO&lt;/font&gt;" style="text;whiteSpace=wrap;html=1;fontFamily=Architects Daughter;fontSource=https%3A%2F%2Ffonts.googleapis.com%2Fcss%3Ffamily%3DArchitects%2BDaughter;" vertex="1" parent="1">
          <mxGeometry x="810" y="1020" width="110" height="50" as="geometry" />
        </mxCell>
        <mxCell id="9JMxjr_bGyoQFpbuwBPj-20" value="&lt;font style=&quot;font-size: 24px;&quot; color=&quot;#fcfcfc&quot;&gt;Radar&lt;/font&gt;" style="text;whiteSpace=wrap;html=1;fontFamily=Architects Daughter;fontSource=https%3A%2F%2Ffonts.googleapis.com%2Fcss%3Ffamily%3DArchitects%2BDaughter;" vertex="1" parent="1">
          <mxGeometry x="430" y="730" width="110" height="50" as="geometry" />
        </mxCell>
        <mxCell id="9JMxjr_bGyoQFpbuwBPj-21" value="&lt;font style=&quot;font-size: 24px;&quot; color=&quot;#fcfcfc&quot;&gt;Dataverse&lt;/font&gt;" style="text;whiteSpace=wrap;html=1;fontFamily=Architects Daughter;fontSource=https%3A%2F%2Ffonts.googleapis.com%2Fcss%3Ffamily%3DArchitects%2BDaughter;" vertex="1" parent="1">
          <mxGeometry x="1179" y="900" width="110" height="50" as="geometry" />
        </mxCell>
        <mxCell id="9JMxjr_bGyoQFpbuwBPj-22" value="&lt;font style=&quot;font-size: 24px;&quot; color=&quot;#fcfcfc&quot;&gt;Datenschutzbeauftragten&lt;/font&gt;" style="text;whiteSpace=wrap;html=1;fontFamily=Architects Daughter;fontSource=https%3A%2F%2Ffonts.googleapis.com%2Fcss%3Ffamily%3DArchitects%2BDaughter;" vertex="1" parent="1">
          <mxGeometry x="470" y="1080" width="210" height="50" as="geometry" />
        </mxCell>
        <mxCell id="9JMxjr_bGyoQFpbuwBPj-23" value="&lt;font style=&quot;font-size: 24px;&quot; color=&quot;#fcfcfc&quot;&gt;Confluence&lt;/font&gt;" style="text;whiteSpace=wrap;html=1;fontFamily=Architects Daughter;fontSource=https%3A%2F%2Ffonts.googleapis.com%2Fcss%3Ffamily%3DArchitects%2BDaughter;" vertex="1" parent="1">
          <mxGeometry x="1179" y="800" width="110" height="50" as="geometry" />
        </mxCell>
        <mxCell id="9JMxjr_bGyoQFpbuwBPj-24" value="&lt;font style=&quot;font-size: 24px;&quot; color=&quot;#fcfcfc&quot;&gt;Datenschutzbeauftragten&lt;/font&gt;" style="text;whiteSpace=wrap;html=1;fontFamily=Architects Daughter;fontSource=https%3A%2F%2Ffonts.googleapis.com%2Fcss%3Ffamily%3DArchitects%2BDaughter;" vertex="1" parent="1">
          <mxGeometry x="1079" y="850" width="210" height="50" as="geometry" />
        </mxCell>
        <mxCell id="9JMxjr_bGyoQFpbuwBPj-25" value="&lt;font style=&quot;font-size: 24px;&quot; color=&quot;#fcfcfc&quot;&gt;Limesurvey&lt;/font&gt;" style="text;whiteSpace=wrap;html=1;fontFamily=Architects Daughter;fontSource=https%3A%2F%2Ffonts.googleapis.com%2Fcss%3Ffamily%3DArchitects%2BDaughter;" vertex="1" parent="1">
          <mxGeometry x="1150" y="570" width="110" height="50" as="geometry" />
        </mxCell>
        <mxCell id="9JMxjr_bGyoQFpbuwBPj-26" value="&lt;font style=&quot;font-size: 35px;&quot;&gt;Services je Einrichtung&lt;/font&gt;" style="text;align=center;html=1;fontColor=#FFFFFF;fontSize=16;fontFamily=Architects Daughter;fontSource=https%3A%2F%2Ffonts.googleapis.com%2Fcss%3Ffamily%3DArchitects%2BDaughter;" vertex="1" parent="1">
          <mxGeometry x="620" y="330" width="450" height="40" as="geometry" />
        </mxCell>
        <mxCell id="9JMxjr_bGyoQFpbuwBPj-28" value="" style="shape=image;verticalLabelPosition=bottom;labelBackgroundColor=default;verticalAlign=top;aspect=fixed;imageAspect=0;image=data:image/png,iVBORw0KGgoAAAANSUhEUgAAAOwAAAA9CAYAAACusYWeAAAOQklEQVR4Xu2dXYxWxRnHz14WBL3A1BqBK1ELNwWrwUZoIkmXaNJCk0JTSGgia/RC2Ra8KIWmUHpRSBe9MYJJTaApeLG0SVVMMLEQNW3FXtTvXgFGTeSigraX2/md7fP67Ow5Z2bOx3LOeWeSze6+78ycmWee/zyfM2fkq3dtmUpiiRSIFOgEBUYiYDuxTnGQkQIpBSJgIyNECnSIAhGwHVqsONRIgQjYyAORAh2iQARshxYrDjVSIAI28kCkQIcoEAHbocWKQ40UiICNPBAp0CEKRMB2aLHiUCMFImAjD0QKdIgCQYDd+eCGWVM7+fy55NLHl9PP71l5h/m5PdGf8TntXnvzPfPzbrL4a4uSTfffm1nn0ieXk5N/Pjeoox920TzjOfOsWPIpIPSvi0avmvV6518Xk8+u/qd0l1k8ozuzecX3QcJHRfUPPXMq92vXuIr6hS6UqrTxnauuFwTYT/56bNYzWMx1W3enoN25fWMKzo0P/zoFpxTaQbxDRydTUE8+9bPMOq8bUG94+MCgjv0w+qTvWLIpIPSvmz4v/uV8ulnyO7Rk8Yzuw+YV3/6Fj4rq33T31tyvXePyHcdbH1xIhcxzL5yrtLH5Pi8YsAIqHrBi2dLkzLFfJUdPvpTs+e3x2gErIOdZY5tHk33jP5oFdN+JDkO9pgArtGPD3Dvx+wQm9S0uYHQdsEIHBNeO/UdKbWq+tKReJcDSAQsiIK5bwmrAyo7648cPN06UEAK2qW7TgGWuMObew8dTqeJTugDYkE3onlV3pNP+ltEUVxvzzy6PGdD60saHfnadYMCyu+6ZOJ72s/n+NcmmB+4dqLshgKWfK59/aRsBSFslZuInnj+bXH/dvFR6I9G/+b3xgc1cZsJ9bjMXgBX6+TJmFwBbVspjR+8yfPkD45PRpWx/PrwZDFi7U1GH+TwEsG8bZ8YV5cxgtyqyYQE3G0WTu5cPwdpcZy4BCx3Wbf25Uz3uM2CFFxBaT+wZG7AG/hwESxMlGLAADXt17IejyeialTNsyizAsgv9/Y8TpZxOODpOGCn75C/GkilzzB7nVhWPZRMEbFOfcw1Y1uKuDeOFazIMgIUH9v9kS7J903cG7NCU6RYMWJGC1y+YlwJRvMT8FjsTKYjKRMFRhMMIO+HIidNBXmLbs6yleZuA0pax+ADW5WVffPOiZP3aO9PN2KdoP0NW/WEBLHh4/8zTAxI0xaulAcvIRBXQi3bqqd2pMS6SkIkgle/bsjudTEhYR/f75N6x1FZo0j7wYdA21/EBbFGoQ88NzejZg+PJ8luXFE7ZJWWHBbAQSXifv3U0pU6eCQIsDHHp409n2JFIz4UGlMRYpfCZeNNeO/9uKlmlpAHvB9aYPs7OcB7pvqUObSWeC/C3m37fNs6qMvHAOonW1r7qBCxzhOaTZgN2gbZI/RsmwGr6twKwbWXUOK5pCtQNWPoUH0QRjfE1PLpv2gSySwRsvdwZJGHrfXTsrW4KNAFYxohqXGTTFkmTYQKsdjxFCVs3d1foT+dDi+rfhnBTU4B19VsUxhgmwJL1R64ApRVOpwo83qum2nFG4JxCDvS1Li5gMT5fp5OeS5W83WEBrG06+MSoy/BLVIlLUA1nzPJblxrv9wVj492Y9hCSX1vikV5NImBnksk3+b+OyAMHWtjYKE2pw/QdBFgGJYkTQhpCOxyXk/gedSh4DiW0g5pAPJajVKiOug0e5dG1K2cllRPjJbuJcJD0aXOt9IftYHsySbjQx/EYw+9+syN1olBQ4xijAE3PLas/ebbMU3bU02ffTLbtmki/lnlmoUvG6oW8kpWaAqyrXx22s4c+DBKWLCd4miI8K0dOSy5lbrMgwOpEf+lRFlN2M1kg7TkUlUriqrrN+rWrUiBpnV9OAUmyBX1+aM7KAkJdJOwj8S85/yiJ2dKeNgS1R0YSE36aPiO5c/uGNHvqtnUPpf/ruUF8JOcSA25iv+yYcgZSwleaiemDzUnCUfS32fRxy02L0gwvig5R1b2I9loU9V9GJda2WVbfetMaJsDC1wgisVsBKxt6k9pWY4Bl4UTVKAIs9T54+emU4SX/UsAgif5ZG4VmDAGsZsaXjx8wgJxK813t59MWcEFg0QKynpHVTp4rGgCSXW8M8n3WmJoCapOA9bFfs+YvY+qChCXV9i1j3vgUNvIVy5ak2WCirdEOgbJt15cam09fZeo0AlgkEilukv+LvYfKmSVhGbRkMYmhzo4+YsShZEex6PqUEG2ufv7fwU6WBQ76uGHh/OTO744PYomAEwn5+j/em7ULhgBWH/VDff73lS/SjcG1iZRZoJA2LtWVvkIkLLb6mWMHZjBm1niKTlB1AbAhNLbrYg6QGDRXUYLGAHvQAAOQouq++Mr5QsBqtfjIH06nOcp6185adG3YC2AlK2qhOY6HmqJTG1Fz949vSfiOgo1x6JnJAaFDAMsGM2pU+WX3PTQ4WG97BbsuYdmUnjDz1FIki7FdDpa+AxY+wtzBR6FvWamyCRS1bQywhDlEcgI+dP08CcsAUYsvfvRpCnCMeL1rs+i2swt1VmwFAYdIdmzHvDgYjAiYxYaV0ya+gEXq/O3UROohZlNCRWKe9vPaDFjmv+C6r8ziixVGE0IzEhr5MJ3Lw9oFwNpHPV3zJhU3K10TwD5mMr6acjgxrsqAtRlTM76c6EE15u8iwAq4AaFWhxlkiA0r3lvyjfECU/hstQGq9hrbV874AtY++yiLi7otDiw+aztgMRmqlqKUROm7C4B1bTp5dEIz5EcfYIcPvv9Ic46nIMBKipoY6ezI2HDaS2gzvqi7TLoIsLqe7cTIsmHp70OjjrCb2eAQW06S0iVlDBBjb8gNFktuvjFVa/M2hSynEzTgZkgcDFLWf3tVehZSJ8G3GbCMWzassqBFKm00WpTrfHKfASu0g0+ePbhjYG7piwnL0jevXRBgs05voIZue3z6XGwe4+uwC04fOxQkg0Mtxsa0nRh5iy4bQBY43vjTRLJg/rz0gDUF+1XvhHj1Hv3lkYHd4SNhRXrb6m9WTLbtgNVaQChT+YJV+KGo/7LSzcd7PZeJE5gZ+GzER9LUDZ9BgNU7Cn9rO1J/Z38umUEczUMiwuDYfraRzqSZsP25ZJDYCy/9ZbWTZ0gd2ko9/s56hmvcOsPJliz2GPLmEgqOkPqhXmIxWYTJfJ5lb9CuNsMgYYUGttZSdjMqomkpwLoWKX5/bSgQClhGqU2RolGzmZF0os82+8zSBdiyV6mUmaserx5XncASLZFnNXEAIALWh+s6UqcsE9v3EWVNt6yK5wKs64qZPNK75orJQww+rzQFWHGe8lwcqHZ8viorRcBWpWCL2ruYmKFm2XW+N0uUAZcLsEVpjUWkrXJGl36bAqy9BiGJKj6sFAHrQ6WO1CkLWKZnO03yphx6bAznH3HxvOK6EyqrncTC+Z1XXCGnCFhFORZ/9TduT/MzcVLYBUJ/3eTg4njCKaTr6NM0up3cWyzMRTvb8WPX+ezqF5lBbOpdixcZNY37KoBlbD6hHpyGIdfNahUxb/6hkttnnq6LzucCsC61vAw/BElYQhVkecgF4MtNEvSREy/NuICNLKUVty1NL0rjtAvAJJCsj9pxOofQAKDD6fHP9y8MkhxYDIq+1E1UGFEvGAdZRranl0XQdaaSqVkvz5LEhzodDWUI30QbH0Z2qWguVZNxhzhT8hJN7Pm7ACb1fZ1kcoIqj85NAVafbHKlbZbhgWDAaqDIXawSN2VxONqmL+SSGxTlzKi8PEsnSwNAXsnBZ3UCFklqA5M8ZaR4BGw2u/iGeny9u/Z9vUVMyvqT352V2sea7Xxw4+DcaVE/PkBpArBzcTdxJcBCNAAgB8HZnUnetyUfZ1HZ8WRC9i4vh3/rBiwS/Jb/g5Ox8hyudLn00eVMCV1mx2tTmzokLPPxSUoIsT19vNCajgCWtZOC6eQ6hKDb+7x/qQnA2up/qL3vw0vBgH3hlTcGZwdRT25YMH8gUV2qqjBCkVoG0y02Tgokri70HaoSow3wmg9SKVHRp18ZMpm+xCtLpfYhWJvr1AVY5ujTl2+ox1dq10FbX3W9bsDaqr+PlC8z32DAsvPxNnQWgVziV8+/M7hVoS7AolbLDQ8yKV4UXQawjHOfSUsEqEhXYnN54yxDwDa18QGZy4bV8+ESANcl4kWH13VfvrZsFXoWXVVj91sXYOGvnxrexPST0uQ1McGAtSWTZv66AMvE63A6yVglr1fs1ghYP1ighgJaV+qir+rXJGhD8puZfRXASpQDDXOT0dZ0eKnpa2IqAxb7RG5yQIdH9dSv0pB3tOjbI2wPnn7dh4/TiWdih+o0OYgGc0l2iwYlqjh3LIkzLALWD7DU8gEZGT06ElDUO0zOwXjXJuA/wmmvNRu86+SQ7tOV0BHyfKk7F9fEVAIsQCBEQ1wORwGLgXqAE4r/AdFhE+ZBnxdwAWrOx/IWb7m4jPe3cPAXm8gHsPJcOXcoz2GXFclcBMoI2DB2rDvUw3rZp6fCRjRdW9a7zLuW6gQsUpXw5lFzdDNk0ygz5yDAItmwW3UBiJpggJZ6cmjdjtPai8WuhOoqYR7tMdbPAWT6sm55Dlk0QjCtRjMG+sy6wa7ouzJEbEubum1YmZdoL0UZS9QNDZXJC85YS5etrKUYV7Jwg2aVK1mqAFYSfUgMYixlNoyyPBME2LIPie0iBXwogObEFTVyObtuAzD0UUmf/vpYJwK2j6sa59RbCkTA9nZp48T6SIEI2D6uapxTbykQAdvbpY0T6yMFImD7uKpxTr2lQARsb5c2TqyPFIiA7eOqxjn1lgIRsL1d2jixPlIgAraPqxrn1FsKRMD2dmnjxPpIgf8BLK1p+rt9dt4AAAAASUVORK5CYII=;" vertex="1" parent="1">
          <mxGeometry x="712" y="1500" width="236" height="61" as="geometry" />
        </mxCell>
        <mxCell id="9JMxjr_bGyoQFpbuwBPj-29" value="" style="shape=image;verticalLabelPosition=bottom;labelBackgroundColor=default;verticalAlign=top;aspect=fixed;imageAspect=0;image=data:image/png,iVBORw0KGgoAAAANSUhEUgAAAQgAAAA+CAYAAADXooX7AAANjElEQVR4Xu2dS6yVVxXHv5uQtA7wQgcSnxeisU2sBUyIkQGPmKY6UMAmOGqAQTvSANGhEUgc1gBxVgeAHdmkAXTQ1GqADjDSAaD1UaMBfAYGwpWBNWmi9/eZ/3Xddfb+zv7O657H+hJyLufsvfZa/732f++99uOb+8/SU8UTCAQCgUACgbkgiPCLQCAQyCEQBBG+EQgEAlkEgiDCOQKBQCAIInwgEAgE2iMQI4j2mEWOQGBmEAiCmJmqDkMDgfYIBEG0xyxyBAIzg0AQxMxUdRgaCLRHoCtB3PnH1erlt57tkPzctlerhce2ty8xcgQCgcDEIBAEMTFVFYoGAqNHIAhi9JhHiYHAxCAQBDExVRWKBgKjRyAIYvSYR4mBwMQgEAQxMVUVigYCo0cgCGL0mEeJgcDEIBAEsUpVdeTIkergwYPVli1bBqrB8ePHa7kbN24cqFyE3bhxozp79mx16tSpgcsetsDLly9Xt2/frrEZx6cX/aiPdevW1XX94MGD6ubNm9XOnTsHal4QhIMTJ+Lfrl27Bgq0F4Z8GvOgy0EeDXjQxIP+ODE68zlpD8RGgxpXckvpR6O/cOFCltSoa/kRdbJ79+4qdf8TNtMh9fIEQTjUaAA8+uwF1JI8wyKIkrJ7TTPJBNGrzauZb1B4z83NJYmjxLYgiCCIEj+p0wzKYYsLnPGEg8J7YATxndc/uKpV8q1n/t5z+T+49pXqT/d/viL/jo9/o9rxiW8WyWT4efTo0Xp6waM5/IEDB5aHeAz5SMOwj7kfw/iTJ092zPdJd+LEiTodfzNaOHbs2Iphv0YQSkv5SuenHQwPGSYyqjl37lxWJnorrTUaRzt9+nStD3bt3bu31gcbfDr0RhfSMV8/fPjwchI5LHIsDjl5YKl0yMMu8PLlWh0YavOkYgXkt9Mb9OQf9SC8+Vv65OSCOfKxwz/oDM7SQ/Wj/6fqUriTD5zRcfPmzcvTGeHPp3Dw+Hu7KWdxcbH2R00XrS9SJj5x8eLFujzVF3L14AvEJfhdPmX1KmkYK0YQs0wQOIKCcNZBAV5kAcg4n+ZzAI+jqYLIhxzmgnv27KnT0RiofM3drSx+4x+/8T3lI9/KQybl4iSkVQBSZStQpcpONSI1BpWNY2nOq3wKPvIbMnBM9CeP5u2UKZv4RFce9McRz58/v+xziuMoaCqHphzk5EiiaYrne0LkIE+NGr3BX3rbaaKXS1prgxQnHbqpjkU4slu4U64lcnQjQCgfATfkqIFDRkqfwt/rRzk+KGx9EX2QjSwFKb3d5Jc/Xrp0qTZRHVsJOZAmCMIhlXNQ64i+Z4LF1TjIT8WpR7COR2WpsclZfMCP30lnnZu0OIGXiUPgwLa39QSRs8euolDepk2bquvXr68YDfE95WIPjqVAGLaKHGSf0un/6EQan65bjKctQUDGt27d6tAbHGggFn+RGZ9gSaP1owjsEEHnApupoT8EQe/tY1cl+Fu9bP6mKYbIxxIt9YU/aBQs22OKsYREv1OMnCPZnllTC8++tgKoIBzLryJQeXa4iAPTiPxQGqeAJKzjNvV21rn42xMEsq5cuVKdOXMm22unypSNmm5YgkhFyikX5xbx5ZxSS42eGLvhX/dmS43Qlt3UgHzaVEPFJtmHfI+Dt8nWuydEyvNEJSJiWgipNk2tUvo12ZcbAaRwD4IYAUHgEPSyqQcnU+9bWhk550s5BWlTS5cpp/IEgb6MFpgbayTCJ1MgOWxq1JKys8lhvT3I3rp1axIv5ORex9J2BAGRppYuSwhCQ3JNJyBrEbfIFjm5OqfRdyPEFP50HsQTLGG0JQiIljrF9/j7/v37dadEZ+CxLfXJlJ0rphhv/uHFjjQP/vXn6pd/e6Xj+6c+tL9a976P5ois8fvbS3dM+IAiGVYzSNmtBwP8pjV0xQhKK6MtQaR63FKCkG3IYCTDJw1L8Yvc9MlXYluCSAUBJdPO3205bQlCOnldSwhCcRI+U8NzkYViN74M1XlqdJMj2BT+pG1DEKn4jsob6ggiZdQwLoyBiN7843c7ihtngmgabiqSrl4n1dunphh2SG4bMd9bQkiNCnJO5dMiJ9UYbe/ZZorhdbMN3tqTmiOT1uPgnSA3mgFjRiR+itEPQVC2iJ9G5zdSET9RLCVFlhbXXMfQhL8C1G0JIoeRYkRDG0EEQVR1z6oGY/HI9Z5Ull39oDe2QUs7MvFBylEQhBqAJwlF5dVz2eCcdFbwkrm1YhClBEE6a2+3EZolSJYsFXXX9zRWcB00QWhVRSsCNnaUq/NckLIkNpPDITWCwK+oJz96zBEEZEa8w+tB3VEXvTyrslFqnEcQCiQCNMAuLCwsR8hx0vXr19d7A/gNh2Vdnwq0w1AaI72d5pnIIkholyRHNcVAN5yM/Qjap5/SR+lonKTj//yNDXZZt5QgtP9j3759y/EOBeuQ3RSwo5EqH3KYa1MPfA6aILRSo2Vm34hodOxHAAN0YI7PagUdiSWTphEEMoQr8iXD+k1uaoVe5OVzfn5+eZUC/wEPYkn4FX/zO4QHznyvh/LxW60otTmvEQSRoFUqzq+vK5ldYcBBqNiUs9t02ktg02kd3c9vISjKt6sbpE1tHFLPYkcHqbTaJ6Dlr5zePp3fJ5DSTbik7NEIQnpqyN5EDpqGgJ/yabUHrO0yIPpoPu6r0adNYWV1px5ycRFs0xIz2Gl6Zsv05dnfNDrRsmsK/5x+mvZo9Ud+4OtKGEFcWsK1I0H001S4zXmUIIhexl2RJxCYEQSCIGakosPMQKAXBIIgekEt8gQCM4JAEMSMVHSYGQj0gkAQRC+oRZ5AYEYQCIIorGgtSeV21RWKmepkTascU234FBsXBFFYudrUlFsKKxQz1clyG4um2ugpNy4IorCCh0kQpec3ClVdtWRBEKsG/dAKDoIohDYIojtQQRDdMZq0FEEQiRpjByDbqJlTs2VVO9+YXvgpBmnYOqsdfaltrNrBpqvJ+UQuDYrRgz1gpe20qIVM7TrUVXO6tUi/8z2P9LTmaOdkKm5iD5hJFp+6mObOnTv13/ZYuIeKXXvcJAU+6IXM3FbsSWsYoe//EFgVgvjFnZeqN373/7vzVBlf23Gt5yPkqevy2txJKR107RtbV3VAiUbMPny2CvttzTQIbX8lL/v2/eUg5GF7K/lpTCIcbRu226NplJKnbdz2d21p1tV3Sqs09nrzpqPT/tSnDlfR4HX+BCLTrUv23IGuMeN+Q91gJNx02C0a2HQg0JUg3n1vsXrxZ090WMt9EF/+9OmeUMgdIf/Sk6eqzR/+amuZdx++XX3/6tMd+Z5+4kT12YUXiuXp9CInCW2DoHFzYMZeEKIRg78TkobGb/Z6OJFK7n0VTce5ddpQowB7uMgeekrdZ9CWIDjww+Ezfw7EX82GvvZuTgDWpbvg5k8fFldAJBw7BLoSBBq/dPXz1b2Hv+lQ/rltr1YLj21vbVSOdB5Z8/7q+e0/bTWKQNbL156t7j78dYcez29/o9qw9sli/fzRbZtRQ281dn8bkU/rT276BmXTNxFE6si0pjr24BLyNFIRubUlCB1Q84DZ69XsJSs+HcSipc5i0CPhWCNQRBC549lYtmHtp6rHN3xxhZElt029cv1g9ft7ryfBeWppFFFyWxW3Xb1z97Xq3+/9s0PO/KMfqb6+861W4OuS1dTJSZ2WE0E0XSDjf2tKq4ad6nVp4LpV2RNK6kZmX05bgkiREeXaVZbUaUHppuvfYgTRyu3GOnERQdBLf+/KtqWG+LDImJJYQm6aUVRAQaJepitNDdmvYoyKIFKB0VzZpQQBEeh6fUHZRCaWIJrSxSpGgWNOWJIigsCmm3/9YfXjt8ve71d6ddyPfnU4ed9lvxh+8gPPVPu3nm0tJndVO4I0RRj1CGIYBJFqyKUEoXiEv4IfjHRvQowgWrve2GYoJggsaJpqWAtLCYI8gyaJj63/XLX/M2eqR9fMtwZdAUHv/Ape2iAl8QpdBGILUhDRXvHVbYrBNMK+w8H26v0QRO5qMqYnlGcbcilB6MYtuwQrfUWeQRCtXW9sM7QiCKx4595r1U9+++1q8d2/ZI1qQxAIYdkT8imdwqQKfmTN2nrFovRVeznldWOQ4hA09EOHDtXvPNBbp8irVQMtO+o70rL8ZwOI3Qgid8FrbnNW6RQjtdKivQq6XdmSEX/7wCff+Z2eEAzLuVyjp0dvi9LS8Nh6fCjWCoHWBCHpTDkgC2IJvmG3JQhkEudAJvJSMnOkwCrF4xu+UC+P9jJq8HJ1USgNAGfnfQOQhe5YtPsgdA2Y3p3A/7nDMbW6oMaesgOS4Xfeu0E5vGNDjbWfEQQyvGw2YjFN6DUGIf3BhJGCdGbvBN/Zq+JaeWIkHksEeiaIsbRmgErpvYb23Qc58U13I7ZRCTnDOi2qPRP+jV9t9PNpITO9mWpYevejX+TtH4EgiP4xDAmBwNQiEAQxtVUbhgUC/SMQBNE/hiEhEJhaBIIgprZqw7BAoH8EgiD6xzAkBAJTi0AQxNRWbRgWCPSPQBBE/xiGhEBgahEIgpjaqg3DAoH+EQiC6B/DkBAITC0CQRBTW7VhWCDQPwJBEP1jGBICgalFIAhiaqs2DAsE+kfgvyY1Z/uXcMk6AAAAAElFTkSuQmCC;" vertex="1" parent="1">
          <mxGeometry x="1052" y="439" width="264" height="62" as="geometry" />
        </mxCell>
        <mxCell id="9JMxjr_bGyoQFpbuwBPj-31" value="" style="shape=image;verticalLabelPosition=bottom;labelBackgroundColor=default;verticalAlign=top;aspect=fixed;imageAspect=0;image=data:image/png,iVBORw0KGgoAAAANSUhEUgAAAOUAAAA7CAYAAACE/U1JAAALCklEQVR4Xu2dS5BeQxTH7+xShTJZSWwkiipsZLL0DDbEQpTHAlXisQySKhaklCiFBVV5sERGFRuPMhbCBuO5TMZGFpTERlhlFCp23F+P/1dn2n10z9fz+cx3ukpNfPd29+n/Pf97Tp8+3Xfqr7pMXbW38uIIOALjgcCUk3I8HoRL4QgIASel64IjMGYIOCnH7IG4OI6Ak9J1wBEYMwSclGP2QFwcR8BJmagD++6/odq2dXM1f/RE+Ltt1yuJNf02RyAPASdlIl47t2+ttly8sVr47lT4u/vgB4k1/TZHIA+BZFJ++tKDoeXrHlqyEAceubm6/KKN1Z5DHwRFRWnvvWlr9f4Xx6sDb30V7qHON9+fGiiw6tDGpo3rq8NP3Lbs+vTZ66r3nr9n8Jvuj4cUy6DrC9/9VD392ifV4u9/hp9233ll9dT911e0e/LU6WrPS0equc+/DdckL/JT9j98cyNy6kuycRN9zB/7YRkOceXXPzxazR45mvc0/G5HoEYgmZR/fflsAEyJBvMvP1hdu2VzTdJXg4Li3kEACLH59hfCX+p8tlC7e/+4eqqjNk6+81h1wYbpQZsQBaLuOXQkEFv3Q2wRDRni9iDJjmsuDS+J+WMnwosDa3bs8K5AcH7bWb8wFup/q67kRf7F38+ElwyFMf1ay869ti/JxrW5L76tdj777oCU9LVpw/owFskKIZ2UzrGVIFCclLIk+177uJeUEOGRO66obn3izWDBZvfeFqztzH0vB+sbEz8eYEzyhdldgZiQftvMhbWlfiBYNWTBMi/+dmZAbktKWT3aj18k6nOutuDbZuo5ZU3wyy/aUG2+48Vl4rS1t5KH4nUmG4HipMRtg1go7Ym3H+20lCLOwbe/Di7u6Y+eDFZqU21pKSIdBMVSWlfYXsf6TZ+zrib17dVUfWH6xmcCCRdqS3lu7bpisV7/8NjA5aRuLimR7bOakJBy/8PbBy8OqY+TcrKJVHL0xUmJ1ZutXVBcPMjZ5b4ykMVa2U/XFox6uJsiqCWdBmzbaroOoXfXc0S5jbiVWDjcSgq/3/fcktuZQ0q9PHCrsarIKRfbSVlSHb0tEChOSuZouHnMLyl9pJTLSoDolqsvHcxRLek0b40fmSwphH7vubsH88n4Pkg19/zdwWrKNc4hpdxsSH3y59OB0PELwi2lE6oUAsmkFAFwS4lk4priIipoY5WSKChBHEjQR8od11wWCEXB0uF6quTMKeN7iZYSUcXy4v6KWHFgKiZ805wSy4jVjcv6WlYFoJyUpVTS20kmpY2uEjCBkJZwsVLq//tICXmYr1GYjyqq2eSe6nGJSDbQIxcTAmINLdmZB2K9NV+FSKmWknHyAsKS73j8jSACSy3MKxWg6nKHXcUcgVwEkkkpxSObhYK1JDgjSwEpUPzZmlhcg2woL+6e5ngsK7B0QDTUFv3OPBRSqej3eFDqI26P/uhX15Fp951XhCDQ4m9L801ko8Tyqg/IamWGlCynQGxFaZt+a2sv94H4/Y5AFikdLkfAEVh9BJyUq4+x9+AIZCHgpMyCy292BFYfASfl6mPsPTgCWQg4KbPg8psdgdVHwEm5+hh7D45AFgLJpGT3RFx+/GVxsMTQ1yvLCBect5TuxtqlCovy5561rvr1j3pnhlkOaWqP5Q4SzinxzpG2/un33ptmwmWWRd7/8niSzFZetZ0io+4tMd5hZbCyWAxYD7a7bvqenV8fLQLJpNTWrVg81u9urRfV+x6yFuupb8+ZVQJAnLbWBIMSBLjWlnpn62m7lf0NOdlD2betyspr67POSdJA3wukxHi7ZLB7Q7tUpqkNMGB7W98YRquK3psQGJqUNGSTyNugLaGkOaS0mUJk45AQsOPqy0JyesoLwMrL9i8SEEgiIHUQYsZbt+JxlxivbUPexZbaU0AGilIe2zDXnlKu//jzYiAhCR6pY3Ca/DcIZJNS+xN54PP1yQI8YN685IGmvrFHYSktgZWjqiwjNlCvxLIrfza29k3jLk1KYWbHFe9U6XoxiMBWrj5S/zcq6b2umJRAN2olzbGU1kqwgZotW31EtOrQRCrtaIkT50dJSuXi0mcOKf3TFP8fsg9FyjZrsFpKmkNKZNB8VfIwj3z68CdJgR47NubNWFmIHu/ZXE133crARm7yjnHBtWOlz9LlPJ//j8qufUnXNCkhEtaczda2YDWHCfSkBFlKu6+xKuaOAUsZv6RSgmVrnwLjN8I1TUrBjcvHbhHOA1LJtTK0caDen8lGbHs42KgsJXN5bRxPCawhV/xicFKOHwGbJBqKlJpjDRP40FKL3a/YBl2u+0o7kMlu1+IwLUqfpWmydDn9a88lfVmLlLMEFMsgvFNeCk2k5De7TOSWcjxJuiJSsl+RZAKUhEK4XYddtQ3TKoM2B9tgjKK6XTDlkELntPKXNTkU2QZJ+hSyiZRtRGuSuSlK2rWhu6mNWAYrfwpeTfLa4FwfBuOpsmtfqmxSNkGSoiD2dDna0Enjai9FQXJIaV8CEFL9QQx7AkGK+2kDPakvIfpZmH1ocGhXPF57akGKDPF5uynWsgTma58C4zfCoUiJch946+t/nSTQNkyO6OCkOy1+cx9t7KvnSzpVHQvclkLXRUql4NkUPojJPND2h1XnWI++bJa2bBra58SFvvqMDXnxJnSannBZ6ZxQbcoFT3kZNmHedEjZ+Knm5EqUTMpUt7LPki4tLZw/OKKDTBvO/OFkdBRIBeukTyJ09Y0LzMFbWAUVCG4/XwA5dCSIjvSwBO+Tuem65oaxxRKZRZim8WqOOyq1kwybNk6Hl8lSZs+F9d+fstZuRyXvpPczclI2Ac43R0j/kmsoy4LCcwhWmxKjbCfqU/PkklJfVlGfL2h7wKVISfvWYsWknHQF8/HnI1CclGSZxK4d1rDLOigCawNAHKLMAVtd64k6sc7OEXFZWf7gVLwuFzMOxOTKbJcXrLV0UuYroddYjkBxUqYEbKwINiKJ2wmpU4sN5uiQ5dS6OUGjLvdV13Q8ppMy9Qn4fW0IFCelvvtBh/G3P9qE0Id5uI7bufTtj/7PyNklAupST4cv9z1yS8qVyCxLqW+n0B8JCewkYZE/JQjTJ6Nfn0wEipPSwpiyRYr7IRc7TmyUMnXfYlOENSUBvW1OmSqzSAn5CKCQygdBT55adFJOJpeKjbo4KaWYSGgPNU6RmMVu5oOpgR61qTQ67Xfkd52U3tavJeVKZLakJJmCU9QpspxuKVOeuN/ThEBxUubOKZuEspkoOcodJ6B3zTNLzSkln82UYUw5crtqOgIWgbEgJQThDBl9pg4BFZHtU26SzKempgbJB6lkS72vTV2spSRKHD7h/s9HjZyUTrJhEChOShs0kWBdAR+b/6ogz5aLN4TvkFC60tGsdSLIQ9/MMbXv0X7BKwapLdCTIjP3xKTkt/gIkfibKcM8KK87OQgUJ2UTdH3BE7vbxNbv2zmCdYIcOuHO1u3bBdKXPNAncxMprbXss/CTo2I+0lwEipBSX6Fq6zwl4ANJdm6fGWy1ktVMGRDWkf8oWMu5z48v+5R6UxvDyqwvftmvcdEPCQ0cbhX/njIOv8cRAIEipHQoHQFHoBwCTspyWHpLjkARBJyURWD0RhyBcgg4Kcth6S05AkUQcFIWgdEbcQTKIeCkLIelt+QIFEHASVkERm/EESiHgJOyHJbekiNQBAEnZREYvRFHoBwCgZSX3LW/XIvekiPgCAyFQCDlUC14ZUfAESiKgJOyKJzemCMwPAJ/AxXfzSgvAkptAAAAAElFTkSuQmCC;" vertex="1" parent="1">
          <mxGeometry x="430" y="440.5" width="229" height="59" as="geometry" />
        </mxCell>
        <mxCell id="9JMxjr_bGyoQFpbuwBPj-32" value="" style="shape=image;verticalLabelPosition=bottom;labelBackgroundColor=default;verticalAlign=top;aspect=fixed;imageAspect=0;image=data:image/png,iVBORw0KGgoAAAANSUhEUgAAAkkAAAEmCAYAAAB2ygQmAAAgAElEQVR4Xuy9B5ikV3UmfKqqc5ycNSNpRjmgBApICJBMlAgOgDFeGxZYG0vYsDaLjde7v3/87IJ3f/9re73OGDDBYAySEFGSLSEhhNIojTQazYw0SRO7p3OqsO97zv2qvurpmanuqequcD6pp9IX7n1veu+JiRwO8cMRcAQcAUfAEXAEHAFHoAiBhJMk7xGOgCPgCDgCjoAj4Agci4CTJO8VjoAj4Ag4Ao6AI+AIzICAkyTvFo6AI+AIOAKOgCPgCDhJ8j7gCDgCjoAj4Ag4Ao5AaQioJCkrGZydkGQuyRf5wh3PyNYXDkl7Z7PkBN/hX/3BD0egShAYG5mQa688Td5yzUbtnln8k8glJMHuWuFjy4tH5B9ve1LaWjvxvClJZpOC//1wBBYWAYwDDAHM1FlJT2Lmbk7Jpz50lTQl8EOFB4aOv/wqkZA/+9Jm2X9oQNo7WnT18KP2EaCLl7IBNHQOfSqZwZskOxze48ss3mbGJuTAyKQMjGflt959sbzy/NXojTzIJGqTQyRy2Wwuy0pqRaybv+p9X5SHv/2MyLKu8B2rqaPP+JIfjsBCIpBAR9w/KB/8ndfK3/zBm9ElQfJ1dQBJmoeB+JXvPyvvfdcXRJa24Zkp3z8sZF/wZ09DIEzSo+Mibe0y+tx/kvYW9NGKj4ssFsNkWEdENrzuz2TX5n22hrgDde33UpLsHOZZfTXaY7ITfGb3Gp4QOTKGObFd3vqG8+Sd77xY3vPGc6SztSmcS6JewyTJdh+sACVKKbn547fLt//1OelZ1i0J4gIQstmsc6Ta7+p1UYMEBtvA4RH5nQ9eJZ+95TodrRy37MfJeRiId9y/Q972W/8iXd1dkkpxpshgHYgkrnUBsVeiVhFA/+eufnBiUrqbk3Lgrl+X1lRYqCpcJ0aT4djkcckv/oM8ue2g9Czuwtj0nXWFoa/47VOY37LgAZlsWppBCMgGUqmEDI2nZer5QyI9bfLhX75MPvXr18j6pd2hPJiUKV6CtAnCGPCp2hS3JzKQJFFipjIxfSPylo9/S777w+elZzk6uLJGo1Ba34o3hz/AETg5AoOHh+S3P3yN/PEtr0HHzKm6C0ORSuOTX3yKZ9x2/055xy1fk+5F7bqDSFLdh3/mQ4p1ikX3y+sdgaATGRnOQJDUJP0/+DVpVklShQ9IGVSSRNUeXi99zxfkia2HpHsJpK3OkSoMfvluH3RGRTc0YxtOciBGyZRMoY+NjI6K9I9LLyRHn/j118gnQJCaYipdbFuVVHDzmExQysg+GJc1lq/Mlb5TIpvJ5hKBHEW2Rzd97Da5k5IkMkIwQP2eOwTsUKiL9MMRWEgEuFsdPDQsv/3Bq+WPPwqSRAkoWJKZ1FVepHvHfdvlbb/5DensbccE0GRDQ6WwfjgCC4sAp2dM6DIyNiVt4CcDP7hVmiBRqvihdoH5fbZcCknSZpCknsUdWCh9zag4/mV6wMyzJ2ZVdKwMiM7wkRFB55IrLlwrP/vOC+XD77hYlkKKZAcl6mayQ1JllIiqKH6iRZL2kDKVdP5uA5skyIryEiKrxFs//k35zt0vSO+yDsmqcZbpIFXbrSD44QgsHAIcgoN9A/I7//5a+exHr1N6koyJ+itdstvu2yHvuPXr0o5NRAvVfCnsmDJkaL4YVBp7v/8JEKDxLObqFrwOjU9KO+xBjtx1izQ3mXSnkoeuHFSr6WMScsl7Pg9J0gFTtzlJqiT0p3jvYw2N7ZvCdpNL/hDMGwTS+9MvWyv/9T+8Wt5549nS096iz6YchSTKNov8gvY7GUyHkB5RzB7OMW1b7fGHGeMk3QR12513Pw+S1GkdXOvJRSAYbJ1is/jljsApIUBJ0sER+cSHr5bP3EqbpPk9bv/RDnn7rd+Qrt42SaYgwVKCNr9l8Kc5AsdHICHDY2l4Xybl6F0fAUmaB3XbtMLQJumJrYdBkqCSdpK0YJ01RzsEEOcUyAnkPLqUK1dRrRA2dyQ3IDMq54FpDW06s2rXRg/JjIwMw3s3nZErrjhN/vwTr4e32qpYXRrD6700kqRU0MD2wxFYcASqjCSZl4dLkRa8X3gBohgATpK8L6jUhpZiNLqmACe+mYs0QuoPjLmLQkCaFCXxzzjUaeN9E5LsbJH333SBvPcd58vrL1sfEDWiJaphqlmHtVn1jhOSpB5IkgwRtUwNJMm3zLNC2E8uPwLogiZJugqSJNokze9xjCRJpyM/HIHqQWAEkqTWqpEkVQ8ujVYSxq9SxxJUPEV9VwZREWGDrPZBWXg9Qi2Wwuc0Po+P5iT90hEN2/CRd18iH3rXpXLJWcvykNEqKQHCZRGx+G9gVnUOqpOkOm/guqxelZGk2jRHrMue4ZUKCDhJ8q5AmY8F2IVECYZDUXiUfOBduvRDlTY6OiW5vklZtb5bfvVdl8l/+7VrisBjsGkGzKVNQQakiu95T5gzB4f4+t4ilqBuc0mSD7cqQyBPkqrDJqnK0PHiOAJwQHJJUqN3A5IkjYTNV/Uwo011QlqgJ5vKZGTowLAGhrz0gpXykV+9Sn7hxo3S294aYMPVGlqbxvhB8kQpkgqRQsxEFSSZN1s9H06S6rl167VuTpLqtWW9XmVCwElSmYCswtuohEgVXjSFpCeZfTDH88iY2r5IBikSApXACzch45mcTOztEzk6JVe+9Sz5/fdfI9fBKLsX6WP0ahIfdd+n4IgkyVz4s5AemXda5Mhlz4mCh1YhTGUrUukkSY2/Zgo1Vbay+I0cgdIQcJJUGk5+VsMi4CSpPpuedkFJhL624LUpjc9GnxGGfuD3JDRJqNYo68nxOwS7paptEpGxJwdGpKulVa6/cZP8r1uvl40bFsdAmhboqj7hm1OtSidJbrg9J4D9ogog4CSpAqD6LesJASdJ9dSaxVxGZThUn5nYR0mSfacJmoKExwRMw0fHJDMyLmtWL5Kfh6fare+5RDatjciReeSapxtolUqiKhtPqxZbxQ23a7HVGr3MVWa43RjRQhq909VW/Z0k1VZ7lVpazaGagsRI7YKo7oJZNQLZNkFqNAX3fWbpy0EvNnhgEMEfx6Rn01LNb/nWG86SdUvhra6kiDMWY7shHxt8/5OQSvGVxIvf+VGMgJMk7xG1h0CVkST3bqu9LlTvJXaSVH8trIIjxipE8MccbIWobsuCJCWoeoOmZ3ICbvzDo5Icz8nV158uv/+Bq+VNV20oAiKbpY2RxUPKIjI2SRbjJDGxfcGeqf6wO5UaubrtVNDzaxcGAVe3LQzu/tSaQcBJUs00VekFpdkQSA1lPfyXkh9KjoYHx2VqaALJhDvl516/Ud79tgvkTa86PXZfeqoZB9II23hrEiMmoDWJkgVFJ2Ga/+jspQOwMGc6SVoY3P2pp4KAk6RTQc+vbQAEnCTVSCObi1rkmmaFDtH7zWJIv1C3M7U5Ytwjshyq1AaHRF4alcSGHvn4ey6XW997qWxY1ROuoXUSCRHJUFqlT2qxRJWa8iGKk0ieIpLE2NyQTbm67ZiOUzpJcu+2Ghl1DVBMJ0kN0MhexVNBwEnSqaA3T9eqVxpICmyKqEajlCeHddYMsc13jaRG7Y9AikiapibGZWwIKrfRCdl03kr59C3XyrvfcO48FbgxH1M6SXLvtsbsIdVYaydJ1dgqXqYqQsBJUhU1xgmKokbUzBtCSQ/jGmkaWiafNTkSqVIilZWRwUlJ949Jc3uLvOvN58i7bjpf3nbtxvyd3Xmkcu3thtuVw9bvXCkEqsxw2yeoSjW033euCDhJmity83mdipJAkmCETYkRPMyQjhbeaSJN+CkN8kQXftkzILKmR275hcvk3//CK+SSTYV8aoz6qB78IabkfJa+UZ7lJKlRWrqe6lllJMm92+qpc9VHXZwk1UI7WlQjsiLSo2SKZthpSY8hn9rYpCRGJuWsc1bKb/zS5fLRd19aVKE0JE4psikNA1ALda3dMrq6rXbbrnFL7uq2xm17r3lJCDhJKgmmBT9JDaeZGw1MZ2x4TCb7J6Stu1XecO0Z8sF3Xy43X20u/CRRZoRN0VEUy8hUc2qK7UypYm3pJKli0PqNK4aAk6SKQes3rg8EnCTNQzuC4ETRr6OnmbdYyIGmSWWNxgQfezstRmgY+HHoCBLN7sff6l753fdfIe9+07nyik0rCnljcU+Nh0T7JGVMTEaCyEZ6W3xPfZslVvOjAgiUTpLcu60C8Pst54SAk6Q5weYXNQ4CTpIq29ZmcE1PNAtARJU7GVMTXOgzSpTMK41SH+ZVM3mPGQ4xECRVamNUqY2m5eJXbZCPve9S+ZU3nV/ZQvvd54RA6STJvdvmBLBfVAEEnCRVAFS/ZT0h4CSpcq1p0iLLnWZkyMIOwQlNsilGv2YGtISkNXAj/iOPgqCHLyMDo5IdTsuy5V3ylus3yi+85Vy56Zoz84Ul3cphrXXBUOXab7Z3dsPt2SLm5y88AlVmuO3ebQvfJbwExQg4Sapcj4jIEQkSc6lFrmVKhkKso2QC9kJgOkmowjKQHA0dGBXpG5NF5y2T33rv5fIrN18op6/sLpAjSJ2UUun1sD5yG6PKNeAs7+wkaZaA+elVgECVkST3bquCPuFFKELASVKFOwTthCggAplJ0nUfc1IGLvv0OMtSypRNy+RoRqaGJ6QV5OeKazfIZz9yvVzzitUzFCxE3Na0bBRLMUebu6xVuAVLvr2r20qGyk+sGgRc3VY1TeEFqU4EnCRVtl3UJomCo7zaLakpPSYycN8/NAjGlJAz13TLL/zCpfLuGzfJpWfBEFsPkiDaM/EtDbstySylUeGWauxtkiQnSpVtxdLu7iSpNJz8rGpCwElSNbWGl6UKEXCSNLdGibzRir3UAr0xVzY11jZVminas3AzGx2dlMzefpAjkatfv0k++t4r5DWXr5U1y4JKTT3UIk83GnDTP42GSpZ6hJGS9JkqiaKESinY3CrhV5UVgdJJknu3lRV4v9kpIOAk6RTA80sbAQEnSbNrZZXlgKRQgpOBnVEqmVIvtRR4TIbqL/6uuWJBZhjzkYbZE/BQm5gUGRiXlSt75G1vvUD+y69eJmtXLZ72cLdanF1rVNfZpZMk926rrpZr5NI4SWrk1ve6l4CAk6QSQAqnmL01/jVHNZPmMAK25lAzzRglPgnYHGUhQRpDHrWpIaQLaW+WG16xRt4JcvTv3nK+dCOvmh0WFoAG2Or9ZtZLpRfIz6wqBNxwu6qawwtTEgJVZrjt+8SSWs1PmkcEnCTNAmyqwqDfSlLPRS8zSIrUTAjERu2ooSaDiZEMHxoSOYLYRms75YMI+Pgbv3q1nLOuR9paVLQUomKbvz+d3pK4p9kuMVSAk6RZtEhVneokqaqawwtTEgJVRpJ8n1hSq/lJ84iAk6RZgB0iZ5MopciGIDGiK38GqrXxyYxkhsalCdGuL7lijfzB+18pN19/duzmNvoZCkBpECRNfE8JUhRDyU2LZtEWVXiqq9uqsFG8SCdBwNVt3kUcgRMi4CRpFh0kMp4GOaKKbXQyKxN9IxAhZWXj+sXy84hp9I7XniVXXbCqcNMQQFKd1BhZW9VqNMw2iVE+4CQ82dydfxZtUYWnOkmqwkbxIjlJ8j7gCJwKAg1DktQT3+yJIm+wkFGNFkWBsJirfvwoUpFrqpCUDI2AGO2B+35nq7zx9WfLh95zsVx90TpZs7QjdiltjfgoSIqCK38Oajq68dvXloQ2skdSdRud2VycdCrdeUGvLZ0kuXfbgjaUPzyGgEuSvDs4AidEoCFIEqU5yQw0Y0j8CqKSgySIqV9T2SY65ks65FbTyNhMBKs8iQQmiRxrCZnE2ekxBn2cEBmdkjPPXSm//I6L5GPvukR6u9u8hzkCikDpJMm927zLVAsCTpKqpSW8HFWKQCOQpELuNEprgpG05lILwRqhBUtp6hDmmQ151ODTPzkxJeN945JLT8ialYvlxtecKe9441nyzmvPKpIY2QePVVSlXXzeiuWG2/MGtT+obAhUmeG2e7eVrWX9RmVCoBFIkgViVEf9YCQNLzWNdcSg1lB7JWFMrSqxJg3QODIyJdndR0SaknLRK0+T3/ilV8qbr9og61f15FEn8cpBdYZQkeE7J0ll6pI1exsnSTXbdA1c8CojSe7d1sB9sUqr3igkid5kFBXlQIhoV2RJZiFBoroNzGgynYE6bQr++5OyekOv/NxbLpD/+qtXydLF09VpZr9kYzmSShUMsau0mb1Y84CAq9vmAWR/RJkRcHVbmQH129UbAo1Bkpj+zGySSGf4fxPESGPpNNRpoxode9XyLnntlafJu95+sdyE1+amKKaRXqF50sCwIIlimpCUfhMFgmSfmG7wXW/9xOtzcgRKIEnBV8Btkk6Opp8xPwg4SZofnP0pNYtA1ZMk9foyiY3FEzJJTuRKr++ZAFa1XfZbgh8gKjLrIhMZZUCKmrKZfCTs9IE+keYWuQzqtN/8pavkuitWyRmrFuXb0a7Gv/RI09RpMOhm5rTwHA0iqYnTqLPj+5rtAl7wMiEAkgS6DQYdt6t468e+Jd+553npBQvPpk10mWGHVh0veo2racsEv99mTgg4SZoTbH5R4yBQ1SRJDatBTELQRbUtotqM3+ufSYXgpiZwXsN7rE/BVoiRjDQKNqNZI6naFBLLTkylJTmekfVnLpcP/vwl8sG3nysrl3SV1NiBqxXOdQPDknCruZNyINLoRyTcpk6ltyPTCqODqQDI0shoomHtfgV2nMhlM4x2VUSa3/rxb8p37t4mPcs6LUux8Xhj71EHrjmUvMB1g4CTpLppSq9IZRCoapLEKod1hVIkiyVky1ICi1kO8a1hgm0qNF168I5SpSZKnBIyMTIukwNw2wex2rSmS974hvPkrdetlzdfubEyYPpdax8BJb8W4yqhrxa5KqtxITJqqG8xQeENia/iAkSQJMo7Q2K/AMVNH7tN7rxnq/Qu64KbJDotUyHbM1yKVPvdpfZrUGWG2z4sar9L1VsNqp4kqTUQFiqSH00ea8RJ+VOwL2IuNWovuI5N4bfRQwj2eBiJZVe0ybvfdLG8763nymXnr5Q1WKeig5IBJqgNQZHqrVm9PnNEwHoWuAykRpE21cgMUhlrImL0M7VtM8IeV5YlMlC3QYCpXTOSEt30H40kdS/qQJyJpGRUb8ufPW7oHNvILysnAlVGktx0oZyN6/cqBwLVTZJUX2YLUopEKSxh2IVr2jTd3SdkanJSxsagDoFnWltLQq64dqN86OYL5JfffP6xFh+MhaSCJrsXVSp+OAJ5BKAwI3cmIadmlz1kCrZsk0hB09nWrGSJfTJLk6LQg6JrE9lsGtwnsurndJ+S6z/0Vbnvod2yaEW3pDPQ9waRKEmS27F5x1twBFzdtuBN4AWobgSqmyQFrzJCSFLEyNhKi+iyPyWjA5AWwcaopb1ZXnvFafLa6zbKO687S849IzLADozIdu56E5PmmnRK1XO+UlV3B5330lGNixAR4bn3PrlP/vuf3CPXX7lBPvlr19m3iKllQUeNRMVIEoRN6FRq4689LSEf+KO75HN/9AORjT3StXKJsXveg4Z27IqqIzbJEkWkIbefeStEJuDR987o57071P0DnSTVfRN7BU8NgeoiSUGNFvTSXENsO25HGuYco0fHJHdggIxJzrpsnfy7t5wvb33tJrlgwxJpaYnODDnRaDQCo25dyNSGqeBMZCYhLkU6td5Tv1dv2dEvf/i5B+Sb33xaJncPyKc/c7N86teuUaLN//NagVgfCiEAIv2w0nE9fvTYbvmP/+tH8uiPd0i2q1k6OjukqZWdNYil0BubQJqyKfi+aaZjZVEwuUshPAVEVhCjMhw8CZgbMtVvp1uQmjlJWhDY/aG1g8B8kyRuoJNq7MEjIZf+4udk89bD0rukXTKZEBWbTkT4D77SMjUFz7SJtKRHYDQLtdppyJv2zhvPkY/93Pmyfu3SaUAX1pBjV5MoJECxXW3ttJSXdC4IKJkhqVGpIXociHOWMbMYgR3vM/ieKWl4sIc89UKffPDTd8rD9+xEAuMm6V29SAb2HZVP/6cb5FPvv8pIUmScbV04f8wYJyle6Pue2CP/7a9/Inc9+BKSAU5I29IuaYUYNJuBrphBuNRljsQJ+wMQI8uIHKzHlSA5SZpLJ/BrToCAkyTvHo7ACRGYb5JEl2ozeLXV5Yr3fEEee/6gdC1q129oBzIJ7cJE35hkJrF2NCfkErjsvx55094CddoNl6+LrUxcAmnQHdknudWfd/fpCASVKxmGqbX0T7PRxHz1vwYv/c9/40mENNqqWq/2Nb3SwvAR+G9wN0jSJ2+UT32AJOn4x3FJklEb65x8//AzL8vffn2z/M2XNkM+OiUta3ulA5IlWDQhboUJTxn9FKIlFBSZmHFdWgWhLvr0Dl5mBKrMcNu3AWVuX7/dKSMw3yTJ/H5ojsHRkJJLQZKe2HZYuiFJGh4al+yBIVVCrII32s9ff6a8+83nyXmnL5OlvYX0IBnNuxYtftxsYwUKudhcG3HKXaKubmABIkyrpe5qUVDSUMtv/WiH/MkXHpT7fvSSCAyzO7vbEGMUfAW/N+llWZCkAfmjT94gvzdXkpSFrlcNtnVvUCA6R4cm5Q///gH54j8/I4cPDUiit1Pa2psQ7p2UzjwWYA2ODp6CVxzv4abeddU7q6EyVUaSfJ9bDZ3CyxBHYL5JktqiUpgUVG7nvvNvZevDuyXV2y6rz1wsN8Pw+kM3ny+XnrfqmIYyfQMDFZvISW1fKZVSm9eYgMmb2BEICGi30OTFfGccYzIzJd+5d4986DPfk8PPHhAwcOlZ3JLHjF6UZh2Ha1NNMoBkx6pumytJysesoHQI8QMYY8C84IwwDY5m5P//2iPyzTuels3PH1JG17GUbI0JBynwYtwBDxvgvboCCLi6rQKg+i3rCYH5J0kMjQ29QTCcvvmWr8v6VT1IKHuhvP6yNQWmg4WKdtcqb1I7kkCIChaz2gxRuhLE8csTr3pqH6/LqSEQXM30Jv2QVP7Dt7fIX/3T47L1qb2S6GmRrmWLEa0diY2DPixiR3mnAdCUgT0kST8zd5JEcVYy5MphsCWTEZmRnPK2YBTVPzwmP3nqgPzBn98nj/wYoi3EI2iBq2YHEglqhHktXcEwXD3jVN8cvOLyUqo8x8ujl8/rc2p4+tX1hoCTpHprUa9PmRGYb5Jk3kEh3QOkSX1YuJZ0t4daRfGzGRMpeEWT/NB2Ve2YqGKDAxDjJJkfdSBVUTRuCw/ghyMQR2ASga4/+6VH5EtffVyee6lPUu1t0tHTqqRauQNOpgrXAhzhE0MY4SWrKUkSqm779CdfP3eSFJdy6vtgG6Vd9Tgi0Bf3D8qnP/+ofOkrD8v4CFgcVHFdXTTobsauISdpyFNTsFlSKZPm7gkDRe9PN04afFvCQwv6VBC9evdwBPIIOEnyzuAInBCB+SdJti5Em+CocLZUzLBgRItKjPwcz0+t8L03ev0igNxqIMq0SWM4R4SwVotm88sHdbb4RFr9fYdH5P9AavTpv7hPZAxnrQHPaGFASDvU4J+CmXyIIl4XpSQJ/AVsyQy3T0XdNuvWKFhm7D0yKF/67jb5zneflXuf2KWVbOltlQ7sLHJpgAByRHurFHceYRDpjsJqV0SUIsJkUVj9cARsrAweHJFPfPhq+cytIRDYPAJzO4wC337rN6QLRqfJkLJnHh/vj3IETorAgpCkk5bKT3AEjoOAxgsK8a7U1ojyRcZjpNDEbI42bz8k//sfH5V/hGptHClqmtf2SCfsoRE4O+/hZjQhEKoZshfnPSa5hsw3SVIBKcRYFpXbCM0o4mA8iMiWf/e1zfKVH2wROTgqsqZHeha1aJ4UWpgnMiBHKjEy5qdqvZilukuUfFgdg0CVGW67ban30WpDwElStbWIl+dECORy9IVvUhUseQTUT/nTH912SP773z0k3//+czI0NSWtXe3S2tGcN/9hvMZ0EtG0GSeJBm+lCFQWhiRFNkwkciYRmu62+ZnP/0T+5ran5MWnD0umrUnaulok1ZqUJgCixIiSNYjbkqhw5OEQV7+5NMkHmiJQZSTJvdu8X1YbAk6Sqq1FvDwnJEmQBiVS6qCvp6UhNPnJ0y/L7//Z/XLvd56G6U67tK1EjCOSBApTID7S8BDJFijm4EVP7ZR6RJa4ZV0IkqTW5rArUpKjoS4oTwph5PNRAEzCdO/mPfK5f3la/vWBF2TX/mFNctgGdVxrC931zPiPBwlSdDhB8kFW6AyubvPe4AicCAEnSd4/ahGB0fFJ+Q7yxv6Pv3pAHkIICUFGj9Z1iMlIr0hqqoLtsjoJaEJkmu4wyjY5A7VRJUZmXBiSRHVbFIcgeMGpowKoEpPGmZNbkTvnSweH5aEn9sqfQs/4wMN7RIZGRFZ2SzcMvhlEINIf5qVKJkQwX7m4IbndOvxjfhB6zjSxm3vL1eKwmaHMbpNUJw3p1SggcKx3b9gp2txGLYIZbAa7zUirELPV5JzIU/FVniTd/RFpxkLjhyNQ7Qj8z396TL741c0IQnoQAiWEFIL0qBWvaXAICmHY8emdpvFGNbtHCDuh5MLCDplHfgk1XQiSFA1olQRpoeNum8czpCpU5ujglHzhu8/In3/5UdkJHWQaCQybuzqluRnqOPypW6gaelPvCH1kCiySkTMVFEqx8MrY94ipqcl6Q5iBOFxuBF5C56mFU5wk1UIreRlLRgBbOqZz4iynWcjDLB92yS2YPhFZBXMdFgU4CnDeo5sz7Tht98zk5MxgHsLqwXxheHSSp8rwPbdopGE/HIGKIaCxr7DqwnNdvdD0s0l3NLhoEJSog5qy/YJKbH/fiPzdt56W/xc2RxMI7ihrFklvRwv6MjcEHBAhHET4GIWa4D3yt1GBiYWXKIkghWLMu+H27BuApAdm2qFmcfL3wL2hsWMAACAASURBVFMvy50P7JQ77nxanoYFukyCISJfXHsPvYkSGlZ8SgOMczrBBKC7K8qOQiLFUJjpBuBOkmbfSlV5hZOkqmwWL9QcESDB0XhB5Dxmc6FHZG5A7x4VIJkUidxIT+HGMHKUZkgVbA8nJzIyPjQBqfyYyOJOmXzoY8iG4FkP5tgyftlJEFBeEgKEUlChfRSvdMqyCOo0n4kEGey4RtgfR8qar393i/zxFx+W9JERSS7vkkUwyKaIQ8lR0EqZNihiP/YaaZKKDLSP8WQ7ScEXTJI0my6lHMlsj0y/aEwwQVlaCDN+6OiIPP1Cv9x53zb5+zu2SP8ORPbmb0hS1wPXv4g1JimOY3wFGnKhEZhl2iYQ3q9Av1zdNpsGquJz8yTpKoQAeM28F3R6CIDZbGDmvbD+wKpHgJM+w6FoJGolRoH86G48LRl67hTVwqRNWUjTM5mkTIxPSeYAbDvHQY4Wt8vF562UG151hrztho3y2svWF/GuqgfDC1hTCGjMw9A71bNMJZvWh00LVtxzn37pqPwXBJ7+4b0vgMdPwlOtGZ5qCA0UNgQqTdUAkBYeqFTt2axBqwWSZKAE0XJs4xQJm2fy4nsCarjPIfbSV297Wg7v6pNMa7MkIZprQwI7lTBBvpyBnhIKOtyZLoWBhMYQdAPwWXen6rugykiSe7dVXxeppRIZSWL4POrRot24aimw0DTjqzR9WzSZeCaNvfZkTsansBEcHZcmTHKL1/fKz1y5Sd509Tp5++s2YQPZmq9+lPEg5EmoJVi8rLWAAEP3MLwRBRXQp2lGDhWAwCxGY11b1OsfPrRL/vNf/kge+dcX1FOtA1LOJhpc07YoY0QrCh+p0ieNm1TBOOu1QJIst1tInquWWMHYWqmjieeUT4bAUsUbqZx8/6cvyffw9293PS+bdw/CUnFKEm0paemBqyDnCOhH6SWnrFYlVFEqlGJmWwv90Ms4DQFXt3mXqDMEuHvWpK7cg6vpAI1UabSakbFRSIqoQiMbR8iU05d0yQUXrpEbXr1erjh3pVxz8WqQqLhKzew3uUzpRj6mwasz2Lw6C4xApABjJ1PrIdrWBenRgf5RuR0So7/7p0floQcQVLq7WTrhxk/tL83rbE3GGq12S1YR065F1J6CqAqt17VAkghIPgaSfghC5mD0bawphCVX9HiOjfi4NOjwwLhs3dMv9/1kp3z+jmdl6xZk/x2EPn5lp7R1d0hLK9RykSgvNEpQm4Zn6nYtdLVI32mvZmQWHh0msZlUK67Gm+eR6iRpngH3x0UI6LwQNl2FeHDRBGXzWD4/pVIdm7fM27ZgXTFdj8Azmyktwunj2FlPHkXg3X7MY7TYXt0lrzp7hbzh2k3yxmtPl3UrOmX98h74qRQWEFuibIGxHXxQe+TnTLdL8l5cfgQs9E+0hlofm0BOtf/x5cflrz/3Y9n1MjzWofFpXwKNT7KJhjBqVKfdksEfM9D6aM4+pi1j0mPjS6lKpySrSZIU8aBYO+bd/AMzKTLfOo6h1hEkVvzGPdvkcyBMTz2xW0YGJkVg9N3UKdKSRA65ZuR4gVhQbQDIftUzjhIrs5Gi2DsNUWFSLfUxZWUYGZyNCHE4WG8KM52GSw96WA92Wf6Bd9I7Okk6KUR+QnkRsG2UBczlzpfqAMsUEEwjKfmmZFzzU2KuUO8bTv2meuD8wXMjXhOtK5k0FgfYHU3AOQUpCuCRkpUORBM+95LT5LpXrJa3XXOmvP5V609YmcIWLy6Nt/Ka0WzMY668sPjd6g2BmO2AKnGCrILLLT0oqUvL6drIV/Z3NTxSFF5GTrWP/8m98tXbEfxxdERaVi6V1lYQ9iDrMBEHx0XwgNcFPdguKakPCZCnCUIqAnGtkKRyVJ56fBKbuDQouu/+I2Ny31O7YPi9SzY/ukue2zcgk9DjgynBlikhXd2dapnPaJ2Yq+weOtGFeE8qybIdGkkVJz4zdCpE9nSSVI5WnOU9nCTNEjA//VQR0LUjbMzyqjGVfnPLxGlDt8axaci2dAxRorFdqPxKIM8UmNII1WcTIETIY4n4JrIKXrtnn75Errxyg1x+/gq55vxVchrixRUOm3ds6qE46tgYcKdaP7/eESjqbxQCaHoQkHv2c5We6j+qIovyqbFTfgu5LL98+5Py9bueExmYkpbV3dLe3qY6Na6k0dJq15pENXKsigaM0viYmqbi2plGIkmR+DuaP8hpshTfFenoRQ7AU27/4TH1lLvr/t1y37N7JbN3COIlXInglR1IVtqspJhSJVCvyBhNveZsB8ifaUzZhHxzUTyTvFV+pXSnPnaPRSBPkty7zbtH5RHQuRsqsFyUzDgiKXzl5knjE5kdEQ+zAyJ9wn+Yi9LjWZnow+aM3mfwvm1a2SGXn7VcXgfPs+uuXC9nrVska5diDoIEKTqUeHEDx9fg7ZZX3VEy5PNN5Ru+IZ8QiZIohbS+p8ElGIsrMkEJuHwRudT++quPy/0PvYhFMSUdnW2S6oQAAhdmsGhyuFgsL7M/4lFx8lNqmzUSSTJrMU5QYK3YqdlEYtsu8iQLLDnz8UOEP//OAzvknkd2y9Zn9svEBFRzbfCNg8dcCpNZM4wEkrinqvjZ2GpwT1fdMG1xEtMAluwMZNcFG4FS28rPmwMCVUaS3LttDm1YQ5foxB52Sbop0mEeIvvjvcqbOeVAbYb8mwKTDMnwjQZ0TMmilT3ySqjOrr1oNVRnp8nVMLqe6VCZFHbpmlhBI0OSZtnNo3yWnG6sv7mNUQ11oZopqvZBCAksCKSpyswZ39a2PgR9/oc7npTfgxv/xD4IGZZ1SVcvzFjUeBc0itInSBhgwQJBUgZZRSwva9WlGGsokhTClWsjqkEYG9PcB+0nqsb4lrZH/DidD1v/fWr7EXn8+QPywBP7kDNmj7y496gMQCyO2U6SsGNq7m6V9haGFuAzzI6JxCg6nCDN4zzg6rZ5BNsfpesG7Ri5l445cGSwCExCSjQ1AiNrriOpFlnSmZLTkWvq/POWy9UXbZALz1wil527QrpiUqLIfNu0d7bTNnWe/aIC7Wge4yqVX6NMtacmAb4h845ZEQSgRaHNEdXIYOQRFX8UqUL+EilDvvz9LTIKcpSE5LMLrvwkVDkyIlU7WzhnvlOnAnVad0lSRZppdjdVJhR0nJFPWuSdFlgw9aragDrDoFEt0jftkWyuMXuC6Dg0MCoMl/709j65857t8uMnd8vOXf0iRyFp4k2WdkhbZwskTehM1geKj8ionJNePkULBVxk2wWPl2BlEAzWTN+r7o/T40ME7zzV284grKoaEebsGm7uZztJmjt2NXploY8HJmGGDTaidejE7B3C3jdSVNn8UJAA2SwQ7ZDtrBPKgIP6bAIqt4kxqMzodUapM7x22lZ0yxVnr5ZXXrBCrr3iNDn3jCWyclGHLIX6ftqkEBRyYRbKzxGRBDoqAecwyr/NQy0+L9n9dFI59usabVcvdrUhUNznbn9gu/ztPz0h//bgiwj+OIFUYYhx1A4BgUaBZ3JZZsCwCEca60g91Wxs6nrH0RUWLdXCVIvGpbEkSaGThbY1ywBOikZQbOqJT4GFSabIQc62aEZUZjhGJtLy7Xufl3s274e0aa/s2HpAxgcmJEfrfcRnaoa0icEsk1DRpVIMO0AaHWl0+ZYie9wfBgxaVHi8ZFR2jvPVQM4meeafS2IyzqDz6XQavrNFgh4F6IKxIjak4biTpGqbWStanoL0BmOAxoLKH9Qd1ex2EJDOJl/7zI2IuRJjc6TJtfkdbQ25O7akmHTW4PjjGFPZs/IOjkFEuKbNIYyqp+DNoWozeJ4lxtPStqRVVp+2WK664DS5/hUr5NWXrJcLNi45Sd3zM9I0zmRzTdEcFJGg/Jx1HJJ0YkpX0bbwm9cWAtqDgpiSHpk5TQvCkWHWbmq/yzEV0972DY/Jt+56Qf7gcz+RvT9F4vnVndLe3Y5EydFJZq+ke3qOGt3E26KUD38R2e3pElYsSagKKWhDkqSK9t2okQvsZOfLw/L4C/tky/aj8qOHd8lL247ISzAOH4cdgsY2gZSJKroWvKaaSIToJWDEiUZwPDSMe0gIaO6PRvAim6fQ67QzW4+09Cvxfa+TpOsq2vIz3Xx6WpJ5L0CDPbCoj0cEgsMheFSoHDiStqo6vWAzGEmYVIKrczk2MNQDgFjR6DqNhSODDdDUGD3OMHY5zrAYLOlolXXIJ3XOhavkFecsl4s2LpVXnLVSNhR5nTVYQ3h1aw4Bs1+zoDWRB1lCgyxzzIT1JzCkzdsPy7d+sE3+5EsPyeAu5Exd3CG9kJTSaaFgWDKN9AeZQwSMKU5mFjZUlcbDSVL5+nIkljdhD116wcKDsXb0lDRsE/YjRsShwQl5dOt+efCnu+SJ5/vkUdg4mWgeu9ceeK50tkor1HStCHBJozaNsEvSFPwGCmQe3wXXYZWIqcgSk38IXDE9RpN2yxhzL1/tq/ROeUmSe7dVaQuVtVjxvh0ZTqtCXSd5daFRFbWGbNH9R0HdTtMIjTwdJvMM0nmMImeUIJ6axiXKgTTBtmLDhh65eMMyufzSNRrBes2KLlmB1AnLF8HuYtoRzzN1PMlzWQHwmzkCc0QgsnszL3BbYaYrS3767H759F/9RO67f4cMjExCpdaGQMytKrBliJ3I1miORajOy5wkla9dIpKkgeACi6FbI63/g8Y1WEDMrKZ7GBHAH356v9z75F559LnDsv/FPpkYGpE04qNAvCRJBLpsRtwm+ABIEulUjICZYabmr1ELBfuuCXEnqAuO76xZU15TNbre8kF//DtVGUly77bKNHpERvIepJjxqUajyz0n/KYQnoNciSTJnFBhTD1ljIgqs8k01GXMc4a/JnzXio3KstN75dIzlsk1r0Baj/MWyyvPWwPDasYCOd5hu2f7N/jL6uZlZhvByqDhd3UEZo9AFupjDZasY4YSHlvEJjE2vvTdLfKHUKm9+AhUar0t0rGkB6YiIa2Iio649oQAqvUWkNRJ0uw704mvIFWKqdw4ASOkepIqNJKUyLZA52ajVea1cixx2guJ05MvHJStyIa8BYRpy5P7ZO+hIdkHKdQkvekiB9/mpDS3tkgTbJ6aoK6jJEv1BSHTclTehozT5DZJ5e7gVXe/6WpktT3CZsDUzbDLCxLWSUSonhxD0lfYDummgowJyaF625tkdW+HrF7XIxecu0rO3bBIzoak6LwzFss6uC3PfJitRTRuaQOYl+jqrYOanN/bKC9SfVcdiF6ghkcgH7wxrEUPP7dP7rx7u/zNt56RfVsPiixqkx54qnGHwY22JocHsaLNkm4+uBUIEbJP4t5QW1g7SSpne0XaWLV8yN+40HnCtzppByKTt1OznaZOvGq4XZiAoxsNQvR/GHmajg5OypYdR+SJLSBQLx6RR144IC8fRN4bplVB5m9sm2EgDhEoXIzb8Mp7qZtlsU1crOJxUhf3mAtOmao2jtUn2HSY01D4Xl9MraFJN6Nr8ipA445KB+PeRjEZW5zM5bHInz/HdnKSVOiH0wwkT24UWegwgc4HyeSxfVPb1sSlQYsV71Ohr8fHRMxAUyWhJmsJO9gwDmgLEUo/k1tFVDFVReNESm3D8EEMoimZGIFUaBQu95P8FoMAweval7TJuasXyflnLpfzNi6WSy9YI6et6JDFPR2ypKdVOpi/cdphHmRmv5QvkfZv84M1EkYde1BR5Otmu3HbYWtHnmMn9sscgflD4N5H98if/svj8v3vbJWRSUTFhgajFWpm9dRnBG3dfEfaEevjOQgCUkjLlUG8rroiSGGqG9x9VD79yRvkUx+46oQNAZOYaabn89duNfKkOAs58YRYJDuKrSe22ESOxmHlKWFuHYJkiYTpcRiFb37+oLzwUp88vfOI9B8clikYm6Zp69RC8tSEzo4oLtgNNGG3nYKxOCdv5pnT53LBgTF5xH00+F1wx8xLwXSM4Hycl4AaUAWtiJehij6sBhl64emAYtBOLk/YcaiNlEnSuAuJ1A80DGR5qM/WBShIAXSnEgu+GV9gwpJXWp9wkqQ4TVe75o2UY3xnejejd2Q8lxdzF9JlV7sr2snCTxSoQwrtzphy+qzQgYw8sB+zn4WOrgSDnpfGmpm6g9FWNJUPiQS6Kvunxk5hlwhkCfMvzrGo9hlIhSgMytC7k9MS+zdVZTja4EHa2tMumyAROue0ZXIB4g9des4KOf+sJbJhRU8J/aZodOYJXJwkmfC3cF7BgyeiUfFBTbwK/KqEAvgpjkDpCNA7k56Z+XAQobth/mUmwBT7KfXOKcyy0Gjo5igMteghg8Pj8vW7t8mn/urHcuBZSI26W6QTdnb0Bo32tPk4RiE8Tb5LR9KjepQiOUkqvR/W4pkkKbsOjMiOvYOyY1+fvAgvu+d29sm+PYNy+OCgHBkakz4QKJU+6Wpk7p2pFnjZgUy1IHw8R0i0UzevIJv8LYJ88LILKkRyHC545jDKlQ2/c40MC6d+p6SI5zFCuZEiLm26QOe9imj0zu/CQjNtB25u2lGsm5MwSCdJJyRJRpasd8eRNI5jPxyzM8xPijZNaq/QtgtsRtvdSG80kUaUQe/He1PqQw4WPYGJYMPErRGp4axAx0+S+wxc6rP4HC5Uj7IOhNFYBsnQkmXdsmIVPMvOXCab1vbIhlXdsmndYlkPz7JuOD4cezhbqcW5zMt8fASiUWivNqIKwkxOwPyBTgscYObYEx0PP3dAPvfNJ+Sr39sq/bv6JLG4XbrogMCMFIhpZPNsGHphEEcb6EKJ6lTNFlWQa4hLkupgCGpPjtfj+ORhcGRc+oYmZWg0LYePDMm2Pf3ywu4heXbbYdn1cp/sRyDMg4eGRcbg1cNsvhMYaCBOQoNV/LXABorhnZJNGEhcF8OooWLBvPrCQNSo5lYmHV/4R7V+lEKEKKuRWo2nqY2WjnT9ZEQLRywsR1DHFAjSST318iTJvduO8fxSqG1XOf2wiBOFH9SeTo3+mevQojmjF+TjmmgMFW3j4Fafj5xa8BbL94PokWBBE5D+QCgkObrUj8CDDDZD2uLkNy0Q8y/uktOWtMg6uBefvXGZnHXaUjlz/SI5fVWP9HY1wYi6XZbCG7QJKQ1mPqxPRTZCRt9PQqzrYDrwKjQOArpJCfM/52KT0HKM0sVHfz0mP+kXvv+sfPmbz8gDD78ow5NpaYZdXmt3hzRTHoUNiaYKwSSgCdz52shDxklSPQymon16vkKm4WKIAAhdNZPm8SLzHovB4PCU7IQEaufL/fIsVHc7Xz4qe2D3tBUG5EeOjsnEOGLFIAnwFK3EWyh+Ilsic4LaDdl/mT8qAaNYPr9Jg11iwEI1p4sy/k8Fka1qsLlohuSGWpIY6aLEKS9xwERA1Z+q8jRHlXnq8TiufU2VkaSF8m6LjJkjvOJejiS1bJPIqSXqDflzgLPS1mDTZGl72I6IHUR/SrYnczCxr5EYM/gik7yyvVDhKbatJinDK3en5EHwJGuGrUMLbIE6QLw3rF0ECVA3yFAPXnvlvNOXyqY1vbJ6ZedJSM10yZDJJRkpn5nF6VmaxSTP/q+hOVi5ItZdD+Pf69DoCOgoCF5mtAuio5ARm4jdZOH0Myp/D6nRZ7+yWYa3Q6W2vFs6utvU7MImUWq6zbZIAxirRDhsKZwkuU1SbQ+ymQ3G8xIC3dVTcY0Q8apRI3GyqMMmoJ0W9OskYAxht3+wf1h2HRyVI3g91Demar09UOEdQoqWo5BCDRwZRWj6tBydSssI/sx4lmXQ1dZESlCbJGKRx7mgJfE5hd0LJQNmYRKGORfoQIY0GodJjvPHcSVKeZJ0tXzm1sYOJjmTJMnsvoLxTzSpmiBPv8+B7Cqx4v/YYabZDmhLBlak23yOYqAglleRPhsFLLazvVV6EVG+B9KgRSvboBbrleVLu+SMNT0gQogpBHuH1UvbZQ0m6jX4PqYBmNb74iRIRUIFXwEtthlMR3N4DsRIb6Y76titQl/RjYOTpNqe7rz0RQhEI8QkSsGjM/R9agsYUuYbtz0p//Dd5zQWXwqOCl2Q0DKfoEWbp6QpirfHLRBTaOlsi/+ZRqTBZa8uSaqXEWdi1fg22QaPrQ76b5DQRN5neYsQFc+ahKeQ1sGu0uuDKCevmz4BZGlIDIZgQzIyPikjIEmjiE48iIHaNzgi2/cMyaHDsIU6NCJ7IZXqH4a6D9/vPzKBc+GFRNUeRL8yiYUOyUBh761ECgE5EJUcr5BM6Xu8UmiVIqHCgtwC+5Solvl10aqjEqYBGK9/4sMgSbcsIEmCnt+keZU9In5zjBaNzRgerf0i2HRlYI82kWacINqmccbEHwkt2yAT2oLXtVEFRuwRswt5yJYvbpXlyDm2qrdLlsNjbCVcg9dCGrR2ZZesXdYpPYgx1I1ErW1tzepi34Go1JQonuywPluwZzLjChKjQuodC51hXmWRWjbid5HawfqusSHt05Gthtb9ZKXw3x2B2kGAtCYZ2QOGfj48MQXX/S3yt//4IMLHICI2xkr7IozB1lbdn3KuzWmKHjXt1s0NRx3jg9FBQ0eh7mVnt4GuHdRmUVInSbMAq6pPjZbAwgpQTJLs+6KQTMdeYiZB+cW02PE6/lv8xFLI08mgo8rnICRSLx8ZQZiDMTkyOCwHQJ76+kfwfgy/wY5qeEKGoAbsgyfGCMjXGNK6TAxPShahEahKoXiY9wnralgNUWoQsw//5o3yV7/3evstMmCcB5HCbf/2grzjo/8sHVArmQF7aAclpGYrQ0N0VVaRoxizMxsDEhaL7Gb/48/UR1RlGekxMy54L6bJKCl7ozoL77OIo6V1jRR8Ji3i7XlH2hslQTZTIC+tnbDtQeTcbrxf3N0sK2G8uQSkbuUSk/gsX9wGqU+XLMMkuwKvK2eILH2y9i38XtSLjrks3mejnlh8xXE6rXbu6HbF58RJkpsjld5SfuZCIQDpjXqjcR5gtgU1EFLSr5RF5zlOEyFYaSgmtQPP7uyX3/2z++WOH0JqhPAXqWWLpQ2blaR6v8V8UYPqvHhTzBvZnB+NINM0NPjhJKnBO0CNVn+SKSPgmTcIoqSECZKrwdGMDI+OyziSjB4dxCuiKfMz1YFXvmKVvOt15yjToJExZ4Hk8XU8ZUPl6/dsk3d94CsaiK3g1061VGBJyoFoMwaPwjg9xYTXCSlMM9WOKCvdeDs72jBXpqUVk2crgodmMFP24BwazDcjGGILYvx04fuOrhQITxti/iQR/6dd2qH26iQJgkSnSyU8LdILzy+V9OD9IqjGujsYGqLhp8OytbvfyBGYMwIY11lmadBNkjnBmH0pSRNV4HSGCKJyPGT7/gH53r075AsI+vjTx3ep/V8LvDzbESOPFzK8Sor3YGJnVaEF6dB0t7U8OXJiVNR2TpLm3JX9wjIhkHfMC2s0JwLd0eRJjP1QiAhbJDYovRTKjehxZy6rJw+mWPqtZz4zJwcgCXvo6UOIhA4jdg20xt1gQeihnoCYxEhqmhkENNgCEAOqqixeEA2Pc5j0WmD+k9XQDM0gPsSjAwSH4vMmqB6bQHKa8P1cyV9h9xiz9wqGXxYk9FTx8OsdAUfgpAgEB5Wg9TJSQ8nvtE3dvz26Wz737S1yz13PyZ5+eIa2YD7oYqJ0kCPeQz3c7IgcN/LiZ5cPnbQZ8ic4SSodKz+zQghQs8SdUsygNq8iiS3MUTCzvAgYhMEu4o6LImhzf6V3lRkkm/uqmVSBjFAlp54f5i5e6UW/HGrI0hCfSYXF7wq0pxAJnbvEYKpPtR5xiIydw8QZuQEYnYuOqCEWyj+vNCT8LEegLhAIY1I9MmO2fH0wPfja97fJH3/lEdnx2F4EfYSH6OIOmAzCqxgbsTTEzk2YA6cw+aSC968GCg5EqdjjrS6QqnwlnCRVHmN/wokRMMmRiY+LBL26gtP+xqQ+FqfbtOa044m+o/SFsXvUby98b09UuVHe8Nzs06HjJ3GiLVCFWZLZHNEWiLtAJjzi5xAGIQbJsbQjIjj00lIWE86OBXaLrg+/q4m9zqjEpuC5mD8t8CilOkpKLaK53TmyV4pUgIEQqbjfmiZyCJiJjnn/dgQcgTIiECTe0fw0jGwKP37qZfnmD56Rv/v2szJ1ADHsoL7vgGdoM71Mg+dvBvMgCZI5L1BFB6IUESQlSWaIHTPeK2Oh6/hWTpLquHFrpGr5bDfTSVJEdDjm84QmBJlUg8awyAeDZC7m00mSUgCdHAK5ChbQllKjsvojI0mRao8fWBGWo+CyHjhLMKiP6FKMFKHwJmW3yU+NOM0iO09cbNJjahi8akUDNnkVmU2M8Ss0MnpwgVMNX97aPUbiCsXI96T5k47VSOf1YjoCFUKgH4nM//rOZ+TLX9sszyDlFIPOtyIfZwscLFR+zumEGyMGcFVVPscxJ9EgRde5zubOSJKktkmavqSyc1+FIFmY2zpJWhjc/akxBGZYjI+PT7QTmnbRCTZIUezu+Y73ES9pPsWKqrpm2MvlJUbFk9f02Ebx5MAFjEy+VgjjULALN25pT4w/N/8+9mVJzeAbUR+6jsCMCJjHKYOrmt1AflOiOSwjqTB/YCRrnovvofqPR8agM8aDiGv0qb+4X+77MYywkR0hubpXnTDiNkkFrzRuwjj0C/HuosJFI376JtSd+mfZgZ0kzRIwP90RcAQcAUfAEZiGQBTIsSCkCTsKNcSm5UBI0xTF/IpJcx7bdlC+AVujr373Gdmx5QCMsJE7c1WndCIBOeO1pqhWo51lzJzg+CmZjr/dcYI0h27rJGkOoPkljoAj4Ag4Ao5ADAElSXmzgCDdDVaUkQt/sZYrJ391+5PyDUTCfuine2QQwXdTCNrajphqKQTPzTG4KyXAjIcUIs27kmwBupyTpAUA3R/pCDgCjoAjUFcIqJ2fep8wlQeinqm5A7igEQAAIABJREFU0PSAjxl5bGuf/OlXHpYvfe95ye4bEFnWhWCzLZo9QOMfqcCIarSkxjhS3wkNMFt5j9y6apByVcZJUrmQ9Ps4Ao6AI+AINCoCmg8zkBzKgArBYUWoTvvXn7woX7njGXn0sX1gQWlpQjLnTgR3zTGCPpiR5tRUH17Kj/DZ7K7tM8hWDok3K+yQ26hNd+J6O0nyfuEIOAKOgCPgCJQXgUnkQ/zqD7fJP/3geXng/m0ygIwAzEHZ2dtu6jRKixhdG8wnBSbETADHqNXUKNtoE8OeOEsqbxuVdDcnSSXB5Cc5Ao6AI+AI1CECmq5jprhpMRfQrIbisBhkWbimJWlIzddpop0JpAR5YutB+Yt/fkK+CKlR9vCYyNJW6ehsU3WaBoYMdtUWdcM+FHKMh7yNUdoiDYtCcRLfuGvpgnQ/J0kLArs/1BFwBBwBR6BKEDA3+Wmpd/JRNaIQGhT34DRG8A8BG1n8KRCmx7ceku89sF2+8M1nZPv2wwjtPynNKxdJe3sL3luQV4tFFsVyiypupKmQiq3gEZeXGuXJlJttL0h3cZK0ILD7Qx0BR8ARcASqCIGZtFnFspvi2Ph9Q+Py5e8/J1/69tPyzJZDMjQ2IU0tSBPS1aKJqTXnGiJA5piAsSTX/SoCw4tSQMBJkvcGR8ARcAQcAUcgQgC2QxAXIW692grF3fYnptLygwdfks9+4afy45/sk+w41GnIndbZ0YI0P0HSQ7c2quYyiHIPqVNSVXWIdB3UegVpkkuGaqLPOUmqiWbyQjoCjoAj4AhUHAFGwbbUHhGFOTQwKo8+f1i+9K0n5Ns/fkmOvtiH/CApaVvRJS2QHGmsaxIgereBXKXVfIjvNKa22i1FUa+jOErHDwRZ8Qr6A2aLgJOk2SLm5zsCjoAj4AjUOwI/ReTrv73jCfnRvTtl6+4BNSlqaW+W5u4maUo2wdQoxDACIcoyHhIkR/Tb17xomkeRFKk4R2Q+nUhRIu56R7LG6+ckqcYb0IvvCDgCjkCDIjAT6VDz6GAkHc91yIjYOSSIZopXtb6edjBG0e6Xh+TPvvK4fPWeF2Tv03sESdMksahDOlqQWBbSpUwIXhRub7bV+GBJoi3KtiWPte9MGlVQqzlJqsGO6iSpBhvNi+wIOAKOgCNgsYaCOiuvyoqRJKUo5kNvarT8Z3s/Bc+zJ3ccke/fu11uu3ub/PRpBHocHNco2J2LEM+I54eca1HeM3tmAD+yWSowIj7pGHIUbypXtdVYx3WSVGMN5sV1BBwBR8AROAYBJR+aFoSe+pYipEBoio2kdx84Kp/7zla550c7ZPNT+2RgYgrCJeRN62qTVtgb8UiHe4iSJNyL5AepQhI0zC5OwuatUc8IOEmq59b1ujkCjoAjUL8ITA8EyaCPSZIYqNWmH0eOjskX7twiX77reXnk4d0i45AYLYXEqLUZOUQQGBJ/kpuC5CgFk6KUNKn7PoyvoWZTNRqd1hAQMu6lVr/Ies3yCDhJ8s7gCDgCjoAjUKsIHM/Oh5Kfp144Iv/2yC65/e7n5e7HYGN0dFSkvUnaly2S1iZInCgUYmLavAeakaIUvqP7vsY3CsCYrZMlm/WjgRBwktRAje1VdQQcAUegzhF4af+A/NPdL8gP7tsujz+5R/qGJkWamqSlMyXtbUgoS6ajttt8NVWaWVnTjR+O+/yI/1I4JxtiHzHCNslRJhCqOofQqxdHYDYkKQvKzkzHKTBt0/miM1GyiY5EzwGNLaEdC79pJzTRZBK6Xj8cAUfAEXAEHAGlIOoiHyQz9DrTNSKNP0anxgtzqenPFnuIEYco2iGhiWI2RkhyqTlyZFT++rYn5CtIKPsMJUZMBQKvtLbOFrjrgyNBlUZVnB1mxK3cyB4WcqdZgtm8Z1owxrasIJZc1o2uG7D/zpYkkQTlyLhV7sjOa4GzQKDwkV3Oen4yltsmgtU7WAN2MK+yI+AIOAJFCIQttnIW21xHHmFqeq1rhxEoJUVGW4Jrvd1oZHRKnoBX2t0Pvii308Zo636RfqjS6K6/pBOkiNbbZmDNW+n6FIy6pxOl6DNFSDmkErErAleLldvXrwbtxrMhSRA1gh9ZB1bGTXFlkcaW1Cl0TO4U2Ndi6lvvZA3aybzajoAj4AhMJ0pYI2gTrVY/uqxEqq9gB5RfOwqLyIPP7Jev/uBZeeDBnbLlhT4Zm5yQRHMLVGltCPSYkhQETiRUGhOJyw8JWIhjVIih7U3hCMwCgdmQJHQ2RF+P1GdZSYMP/eXXnpKfuWadnLN+aeGp2jsRmkuTH1Os6WLKWTSJn+oIOAKOQN0iYK70qovA2mB50goxjIo33lNYQ366eZ/8xW2b5bsP7JL+7YeREgQW14hh1AFX/SYkkjW1mdp5MFEaAl0z7xq0GcyXlsP9dT8PbUdMSlS34HrFyo/AbEgS7JHY1TSYaSK4WF7y7s/LE/ftkJ952/nyvpsvlhuuWitrl/XkCzrd88ClSeVvQ7+jI+AIOAK1gkAGtkepYF9E9Rac72NFz8hzuwbkia398i8/fEp++PAe6d9zFOZKMPFY3o04RjDATjSZDSwOJT5IB0JTDzWqZjztiAxNCzTpa0+t9JAqK+fsSFKa5m7BM8A69k2/c5vceeczIs0wuAPt37Rusbz2tZvk3W84W268Yv0xtfWOWmUdwIvjCDgCjsA8IqApPXII1QiykwShoajnud1H5XtIHvvtf9sqzz51QPYNjDAokTS1JKWlu1laki3QTKTVwDqroqMQaZveaVh6UrRfyguhVIcXbGdNYhWdP4/V9EfVCwKzIUn0bVPZZUwietPHvyV33rNNFi3vkqmptEwicOkUO/jYpGy4aLX82jsull+56UJZvaxDB4Md1BebgR5zAqbgdmm3pQcDerwmCYS6LoSRT2owLz8cAUfAEXAEah4BBGzMSXM+XcgNv/7Pcs93n4UaDfN8TwciXjfTYx9/KXjBKaNSF301qg6vkWV39Fk37+ZFpOuMaTviqruaR80rsFAIzI4kRWn9CqVVkvSv26RncYcxdrXXNhO5gT6QJUQ5le52edt1Z8jPvuVcufLiNXLuaYvzN4hiVlBcSlKkNCriUnycOtE5SVqo/uHPdQQcAUeg7AhoyBjeNSlnv+2vZdtLA7II+dLIidTtn3asMGrVwI3KkczrrEB7oneBQMXXDTMFjy0kZS+937CRECgXSVoEt0vGUMrTKM2WzDw3CRmfmJDJYYiYICha1dssr3vdOfJzN26Sd163aYYYSuaVYNfyVbcEjdQkXldHwBFwBOoYgSj3mc3rl773C7L5uYPYaLfngzva1K8rgUe4ruOeUBNVKwtJQpyKXuwCeJAoGeNnqHcGneSGQd3chI4GGRjgjQ5DwjQA473l7fJ+GHv/8s0XyJUXrJbW5hgZwpaCzgqahmd69LCaQNYL6Qg4Ao6AIzAdAfWQprF2UBBc8p5/kCefPyzdSzokiyCQDFZMtRmDP7pntPefBUegLCTp7m3SDZsjlaBS3WYSUNMj478mhnOnHJXumYxbAfaTaMrKyEha0geHwazSsmLDMvmVt10gP3PtRrnozMWyCokH7XC98oJ3Ei+AI+AIOAJlQ6A4NOSlIElPbD0sXSBJGqxYtQdGkHQFCEbaZXu838gRmA0CZSFJkCR1L+9UUanpkBkUjFG36Y5JFRz2DSFZIAkSBUMZjdrNEPMJOMVloI6blDT+4N8pZ6/slTfCfumtV2+UN155rIfcbOrn5zoCjoAj4AhUEwLFJOmSXwRJevaQdC8FSTLXIHXn1xh7UY61eFTiaqqKl6X+ESgLSUKG5d5lnWaPpP8EPVleomR6ZTXSLsqZEzkjqLU3BgayL6fTMpSBe2jfBDzkJqRt9WJ5303nyC++4Ty56qI10tEGt4f8QQ84ki76xVmMDI3jxOer5Ir3t7D3SsnUKDBjol4tj+UF8sMRcAQcgfpAgPNv1mY5zrX4mE3yE7yGLasrJ2n8mUG0xRQKqTii3Gbz7CijJAmSJNok0ZstUrGxPSyViGsT6qNv1mgtyk6SdORZ5NN4tp2CyDSkFIwnDwzDNgWjJWiklcAkNTiYyDBCCeQOwIYJ33Wu7JKffe2Z8ubXnS0Xb1oqF5y+rBj1IMEqyvITSJm5SMROV5JUcKSr0ebzYjsCjoAjoAiYw0vMjsdcjXVzGuUjs1mZrvRRLKEpTK3NeQQXQrUVJ0k6TRep13yW9u69wAiUiyT1QJIURmmeJM2Ogphcx3Y1DAfATQ+CiSnxSSLgalqmRuAlN4rdEHY6yzub5PKrN0Add7q87orT5BUbpxGmwIhUrsQJIc6QVNXN/D58lkmV/HAEHAFHoJYRsCSuQWpvYn3NXWaydcYOoks9a1gsPYettNz/1F65+txV0sJYRfOs2ppOkmq5DbzsdYhAtZAk3e0wVD2pEoyWIs9/5UoYxBmGFFCvB3yezMoEpE4TJExDMPxONss5F6+Qt1x5prz99WfKay5Zp5ND/FAvO9V3m9I7q8kVMX0o53KVWx12ba+SI9BQCNicyVxodJShHahtO6eTnknYgO5+eVi+fd92ueOBnfKTR1+Ukf5RGXryd6WrJW7OMD/wOUmaH5z9KXNEoFwkKW+TFFO3zWZHomQIozxLq+6YATi3PhqVW0VLJj4mpVFdeojIPYVvRvtBlgZh+I3vV5yxWK6/cJ3c8Joz5OqLV8qmtUun2TIVVG8Mce8UaY6dxy9zBByBqkHAvMKCHU+sVPuOjMgLu48gFtFheeCRvXL/03tk394B2DJgvmyDqg12nl2LOqT/h7+OKNfzPxs6SaqaLuQFmQmBaiFJLJtmcgbxSSJ5LrM3a1h5qMp07EOSRC85dQ1VVZlF9c6FnRNja1CszFADk0OTSJHCe6VlSWe7nIOQApdddprc/OrT5dpLNkhn2/xPBN77HAFHwBGYDwQmJtPyyHMH5J7H98qjTx+Q50CKdhwa1bRRdC1uSTVJqqNJmpstd9rA6JR0tqak74e/Ic1OkuajifwZtYRARUiSkpkoqups0Ch4XVgYemVBegN+LvKMC4bfIX2hSpniwbmpsmPgSgYkG5+AQfgo0qOMZqQN8ZfOP3+5vPfGc+RNV58uZ5++GLl56fkx7WDiRO7K1PCRYms7R+OBk8hpUe0966rh0aK8QVoair3nX78/G7T9XEfAESg/Apqg3iwDzKGMmzr9zA+FuUbnFaj9czQvoN0Q93UhcK7NhJxDkL9M1Wgzy+V53hBIzubn9ss9P9kldz78kmzZekRGD0JShNxn0tkCO6MmlRClUjQxMK+2+DE8lpY22CIdvesjIEkzzIXlh6joji5JqjDAfvtTQ6AiJCl4t81G3RavRXEUjWhEq9woDPDILZRXBRKV9+CglAmTgZ5u4mfOWGoSDqnT2HhOpoZCTrmONlm+rkdueMVpct016+Wyc1bKxnWLZPkihMePHTqZKVkzQkRilLdxyk86ZijJZ+X9Mdwe/NQ6p1/tCNQgAtNmrIgpqZNI3nMLJ6mnWTRH0EFF5zBzJGHy7xxfp9X/0NFR2YMAvM+/eFQe3LxLfvr4HnnwxX6Rg5jTMiBV3R3S1NMMaXmTBTgpWBbYnXRfZzNUdO8RkKRWJ0k12NO8yPOCQLlI0ql7t5WrukaSzLMjEKgoMJmGwkdEJcwRSWmS8alJyYxlZArxmDhjtDc3gyR1y4UXr0VMpnVy/RVr5JKNy2comE1nEUWziY+PLMi19Dd+p/GanC2Vq3X9Po5AtSMQj79mhIl0hQdJUkjsqh63ylXMmcSMB8JroYYDQ1Py2AuH5PHn9sl9m1+WnVsOyN4Dg3IE0nElRZCCt7Y3SzNIUVMz7om4Kbw1bLP1XhAeQR4VGXDPjJyTpGrvUV6+BUWg3kiSiabN9TVKkMhXpkMBHcK00aK7NCUusHtiYMkc5Nz0BskizMAEJE2ZcRg0jjA2U4t0re2RV1+4Vt7y6g3yuldtkHPW90pL03QPkBD7SVV+Rs40PxG85hYi7siCdih/uCPQ4AjQFV/D2oIQqecsHVIw3ZiMOTCjY2REOA38aV/fsNz1k53y0DP75cdPHJQnt70suf5xqM5wLewrk7AjagUZaqKKDgQpyVfMNZQ6Mb1TKgEJEqVQDCCJh2Yx78Vk2zO2jJOkBu+wXv0TI1AuknSq3m3laqeIJCkPCiQlujftk5pIlqAyoxhazQV0zsKUpjZQnNhCrBFMPhM4YWpsSjJHBkUwT0lXUnqQyPfa89fI5Zet1aS8Z4BEnba8R7o7CwHZotuat8mxIvNy1dXv4wg4AlWIgGrkOfaD+myGIh4aGJHdB4Zl36ER+ekzB+XRx1+Sp3YOyO59sCUagv0kpeGLW6S5uw2bsmblSMqDlADhhmRdTO2kZk5mj6mWk8wizkC5wWYzBFWZgZIVCuUkqQr7kBepehCoN5KkRpLBJkrtkDSoGucNSo44t5Agmahb5xH93QzNAz3iL8qgNNSS6u/pOceNGgJaQn+v6rlkC/7SsrqrTdauXybnn7dcrr1ohVx09hq58IxF0tWG3/1wBBwBRwAIvAQV2WNbD8lTLxzG6wHZsb1PdsMt/yh3YiEdSBJ5K1vaW9V4Opky1RxTiyBJkyUTCVJqm9IsmzhtJQvKOrPBVNUevw/SqxMr2yA0d5sk76OOwPERqAhJmrN3WzlaSi0TldyYICdml6TG2xZfKWy0jBAFDzp9r7uwQhj/vJVA3KyIfIuXYXJLp5GcF+EGshNQ0cF+QOBK24EcRJdBRXfVeUvl8vPXyqsvXSdrlnfAT+V4tknhKVoUyyfHb5Se6YQIqwIVmxdfH0/1ovMi40uFwJhx43dX+ZWjX/k9qheBY215tKzRsNJxEaVzNBZBqTKDLWY16KKNK8t4xvAj+KAEQ93N8B7jL3/ecZ4VwOFY2wt3+8e27pfH4H7/0DMH5PGdh+TgywOSQ2gSFQnBYaSpFdIhSIBSeDYJUcGAu4ByNA/pWI7mpbDZO8b7l0XmnJc3yLbNYVGKpuM0oJOk6u3ZXrIqQKAiJOkUvdtOHZYTTGQRh4o85czi2mZFnVWCXFt9TSIfkJNNOFEiSUunkp5CNHBEsFV9HS0oe9pl3epuuWDDUrni4lXyygtWylqo6Nas6JKVi9swUU53u+XesSnsCDV6lBEklWpFR2T/FK0GkeVBKKtuN+nlV7CTChUs1PXUgfY7OAJVgECUuDVeFBvo3P+YTSLHJmXLHBPxsR27JpoGwu0spZGyj2PqODo+Jfv7RmT/4VHZgcCMm5/dL49vPSjbXoKEiLkmB/GHTAAYxiK9reBFUJ0h/ps+WSVAIYtaJPmJhrGJgcKUZKEBIom4bfiiOSAqU/GcMJfGcJI0F9T8moZBoFwkqXq82+a36SIpDSeyNOgMN4q6bY3iVYI1TdCLDilU0kiSZJQHvKmtVdYuAXk6HYl6z1omF5+9XM47Y4mcs26JLO5pnaES0QwemyT1bZjwVXJWmHFDpIK8JE3PjLzwTmihML/4+dMcgVNGIC+IjctNTBariiryEjrca1JrusVzFJozR/7Qe8y8uWKi7a27jsi23Ufl2ReOyFM7+mXnjkPy8v4B2T8wIeOT2AhxUwLJUBLG1M3tTWpHlGIAXHP0p1OtpI1xUZ4dcqlFY/d4EuZTRqakGzhJKgkmP6lREXCSdGotX4h7ggmQhuLB00Sn3+DVwsmZdlBJzJTMGZdN024KpAmXTFJNhwi5MsaZPCuppW1y1vqlctEZS+WSs5bLKy9cJZees0qWgDhFaoHjlpgbUNw3AfH99MgDRbZZp1Zlv9oRqCoE1JuMNoUqKbKo/Dw0FCMNnEmWNJjjiclIBkbPRwfT8tzOw/Loswfwd1CeeemwbIekaGBXv0X8p6khI1XTdoikCOoySqaaEcXaiBglVhjrNLBWM0h7KscjVWv0eEPuJRNc0z6SmQI4ZhcwybaTpKrqzl6YakOgXCSpWrzb5gvfuJ2PERBOlmYUTlmR7lrVFZixuM0VVz3nMInSukhjdFMdEIJRcoLNYNKdgGPL1DBE9TCmlDEQqBaI7OE5t3x5t1y0oUc2nQ6J08alciEkT0t7W2Rxb6esRN6l9paZI+Xm5U/B6HO+8PHnOALzhYBlt6fRkcmOmLj6eNHuB0fHpX9wSg4iKGNf/4RsefGgPI2cZi/u7pPndg/JvsPwLhvF2BtlXjPoyhCDSECIOrtAjJSCxWIdIakkxzy5E4TEKkFmjkmOaQsGaTZNJjuydEpq8xikv5wzkho3aWHTJDlJmq+e6s+pSQScJM2+2QpeJoWAlZQaZTDZ0QSBv2tAubwrrtkYRPZBlsOXOeqiqdOmUf1fYzyZ7QQn0SnsMjMQ56chbcqMY/LGZ7WRwG52cVtKlmISX3nmcgTB7JGN6xfJWYgYvnHtIlm/uktWLemafeX8CkegThDYuW9QdrzcL7teHpHte47KFkiF9u0elMN7++UQgsgOjjMgI5wtdKSBzGA8NbcwhUdKUsxhxrHItCFqB2TeGupYwXySepG9t2j+HL5Uu/Ey2B5hz5KAZCqH61VKRK0fxUl8G7OVWkgJUtTMTpLqpMN7NSqDQEVI0oJ6t1UGp/hdZyRJgRwpEeKuMW8nURDzx+MmxeM55Y2rdbINUqmY6VH+2erZQtsjUDBMuFkYS1B8PzEO4sTou6q2wx8IlPS2y6oVSO4LwnTm2l65cNMKOXfDYhCoXjkdsZ24GMxm/zq9OLZXn8mGY7oRbchhl/cgtPVGj2k3ne6Fp3fSHTpJJd5AnRnMOuzyfHiHyN6+WJ0SBfScqUfUs8dfMFVT3OKITG9Dk8DwW0ohzRtU1/6TqH7irZ4nEEG/q88LbZZ3NLBIiqHBQ1R69TgzVRj7srZt4ZSTD2JckkGBh0YmYC/UDxXZERhQH5WtiDW05aUjcLkfkmFIi7JDCHDG51Mi1IInMEI1gjHSo4yqMlOXBaAigIr6Zt50OvS5sNmJdd48xkHFZt6zFlAk7wfCsa0fSJ6i55lkaaEPJ0kL3QL+/KpGoCIkacG92yoP+fEW2WI13MxzYEEFFn4PM6mRK51Fp/EHW0zCEnZM5SwGlE3mnHTTWPyyU1MwKMWpUC/ICHbLXIioksPi0Lq4Q1bDq27tsnZIn5bL+jU9smFVr5yJaOI9UO3xb1FXO/5aoe07UcLLYpJ07KeoqLrNtkU4vnDnieQ0F+cZmi9fe5W2hRPyJMmII4yx8lceb+k5HsGtfI+ZvycQCoUjmL4Ux9cp9MlCXzVnAiOdMXf0oiIXEC0s/BbcMFIn6XYgBGW1exvxKnhl2f2LqdtMuGSRtDUtR4cnZWB4XAZGJuVg37hsh0ps576jsnffkLy0p1/2IhL1oYFhEZwnkygfEloLfR66WyXVisSuJEOUChEILadFvi5yEo26UiiV9TMjOMcrZ8EO0U7R0Zqvp12f76QBtqJ54Zjz569vzPQkJ0kLi78/vcoRKBdJalTvtoVvXvNqU7+dEN2bO2yukJqagEakIA9ZiP4ZjYC79imEKGDqFUpagp5A1y4uKF3gGT2dbbIYkcV7F0GVt7QbhuSLoLrrlqWI/7RuZYeswW+rejukB4vRqRz5jfvx7KWKWFdePHEMXYwkdIUY6pG68tjS1aME6RijfCVJJqmJ/xYRmsCpjxFiFGi4LfpxMVSB7BgHKJIGatjn2cglyWey0jc4IS8fHJL9R8blZdgCvdw3JnsPjsJQul/6jozIEGyGDvcNyRDylI2zAJSWKgcxKVAKkiGm6aDZXhYSItolqZM97YJCEZUQcQPBqNSUXh2v8qfSkWv8WidJNd6AXvzKIuAkqbL4Vv7uFv9FPd8ieyWVKlGJwnx15vpMNZXZh4bdPdQbumjiexInLqi8PIPdONUwGdpCkUPR/xmpWQTESg8EwWOw8QS8edas7ZTVvT1qQL5mBaRRsINau6JTTsP7pd1Q9y3rlKWL2qD9o3TiZL5FJ0eqeG2Ohc2L1Bi4hQYJVPUJ8YjW1IzanEQre70Rpcg7Kq4mi+oYVznGbWsiqU+Qg8QkJ3NX/yjcwH8Sken3942C4IyDAA3LLhChvYeGZc/+ETmANBx7EV+IOcoG8HsWwVhzdKGfoJoYbdSM50MKlESfocdaE73G2HdS8Pxk7DATSqoeVnsUpdb6Ddqd/RdfMR0R1bP8XT3fQv60ghp87nU8eS+tvTOcJNVem3mJ5xGBcpGkRvNum8cmOumjTOtUMCKP1CFGfiLC1ISNOF2OSZYSsOew9xpbSelDUI9Q3ULJFEkTKBYXGnWltkcYkSIJw5uxCZCnSXxBvR7JVDBu1RNBptQrqCMlvfASWgbJ0zLEhVq+uBPhDNrs/aJ2SKcQUHNJm7ThnDbYSXXgtQNRy1sgHmiHIW0bFslWqPzK4QDUGKq2mDPBSXvOzCdMgShPZtJo3yyaFq8InDgKp4ERGDpP4vMBkJtDR0fkYP+wHEZ06b4BqMOQi+zQkTE5NDgMVVlWRkdoH4f0PSQ/ET9lV4O6VxBHKIngiu1U5VIliO+pElOJKF8RcYzSonx7afwxeoRSXRZU0uyZ6IeZQPy1z0YEisQIH5Qm6eDgDiEIwII6++QqvzmCV4OXOUmqwUbzIs8fAk6S5g/rijxJzR9MbcaFwex+uBrhTeRREy0g/EoFLAxDYCq4QhBfuzYiVXxvwfYYdZghDPguUnnxawtlQBGVBsvDV+q8w2cycB4yklO9l6ZkitICkCoGQ1CVSbB9UfGFxoqBjACSg3aQpE7YTZEotUKN0taalA5EK+8AqVra1SJLELm4pwvhDlpzsJfqlPb2FqgGk3hPaVUTfm+RVqoMkfahBeXq6bDYUs0hPMI0DVJFmqOabjoxOaUcZQg2PZNTaRnGh2HYqI3Cs6tvcBw5uzIyDCLTr+/T0j88BsIzLkf7J0FyxmR4aEJT7pAgDYMcMcrjWSF6AAAgAElEQVQ070PJZT47NFJ2aCdCG6o9EqQ2KbRBogl5yDQHWSS1MUlipNJTAhQpxehBZnqxcE4kdYwIDomTkX3jRPQyCxKkoGo21/pwsB+iXzFekVmpkVzZ0yObPydJhZ7qJKmaRq2XpeoQqAhJqnPvtqpqRCVJpjZToZAuECoissUrYga6sKiSRZcbfdVTIiNx7rpN+ZK/PDI8CetcdF2+/nrvggTJDMcLX+XPm0G7wWdrqAR9E72f9oqbMTdeDgu11kMJFt5j4Tc2xu/J5swwNwVpVg5JQhMkRwh93tGOHFlYqNOQeH38l6+QP/jg1VokVU/RqyludFOhRu0fHJWnX+iXJtrPhEZSqR2en86m5NDhoyg6F3yzISNUyUQzDJUHIcWhuolStJwchI0OOA9yfiWlD7/RHj+HdDaH+gZUYjJKkgOCw6jvQ8MTEOwlkRljXO3PJhDzJwepUBYSPyUXxCu4o5uIDoDiOfp9CnhCepfCZ2bLUZSC9FEFQsGdXb9Xz7AZgMuzFSMoxYTEfiyYRlvHNZIUzgzeX8EVIX+93Wna9dqvCwRMixPGRKFk8ZZuNKp88o7tJOnkGPkZDYxARUhSA3i3VVWXOWYdighSeI0V1nbwgSgFyZMtdNHKViBWBR87u8GxpKLw4PwClv/KjIaL3Mkj4lYyeEFypYQov4LGS2rvQ9G50Cpvoj0VjFOmQKo0WenLg/KRW66R//07N+bJgbloz87YuORix0788g+ek1963xdFoGY0OykLZWAiExSOtl7KbllwEhWLtSMM38NzSVooxmPcHhqWUfcJqZmJSPAhCeN5GuNQRIhUGPqdEh58pps7XmgT1kQJD42XQ9kicsPPvK0RbGPZs6IRsW5zDD4lt/exRMq+mYmBFT/luGWdVSXm0rL1c42TpPppS69JBRAoF0ly77YKNE4D3zJS4kWkjmo5s70K0owZsMmv13ijIXhUBCJy9NCQfOKD18hnbr1u3hG97b4d8o5bviZtvd2QzCBxMdWUuSaNuE4CSYmNuZDjX4huktRR8jOkORrMUA2Q7ZzI8NgitsNzkV6LIbYoJYIUtKmQSNVKBfmNRXrXpBla/6KkrTEJY56JKsFQh/mSiMq8g+oPLCsCTpLKCqffrN4QcJJUby1aH/UxQhCzM8Fn9VLCQc87LuLHyIECS7J0XaY2ZAiEgcOD8vEPXyP/89bX4IeQfV1tuCqP1R33vyhvu+WfpXtxC8oDCQ+lNaodjAyQjfSpFxolPRETVKpkZEeNjjXADwucgXAJ508rfCQ4UXN7RoHWuvG+OJ8qOwqkItJDYhSqbqY6vHd0B6g3IdEyTW3Bg7DySPkTFgoBJ0kLhbw/tyYQKBdJcu+2mmjumilkwbOpQCYK1lPxFd7emy14IBVKrgJJAlE4Chf03/4P18gfgyTFpU0laHNOGa/b79sub//ov0gnjM6pBktRQqMJTQsaRNNK8ftgRsb8fkH1RSPpBFRueo4Sp8DsKJEiuYqpNO163pgiJTtPvcUCIYvsforVoGRPVP/xARFRilRu88AiTxlhv8GpIuAk6VQR9OvrGgEnSXXdvDVbuZlIkkpU4qSg6D15gfnfkQmpdIZEAmRh8OCw/PaHrw4kyWiSyagqb5N024+2yztAkrp622AiBLVZYEJKR9QWiP/wg/oHBgoU5Qszu5y8Db7Wq4BBPohmUI8ZyzIj9kAd8zZh+k34vjjtiBbCTs+TpJrtNl7wOSDgJGkOoPkljYNARUiSe7c1TgeqYE0LhCgv/zkuSdJiBL6h8hY1SjcvssGDI/I7IEmfDTZJ072mKlgFuR0k6e23giQhqCbVhQXyF0iSMbpAlKaptwI7smvIcUIsoEAOzZaJ5KZwfaQ6C3KkIvXd8XOyFfCtJBZ+7+pEwElSdbaLl6pKEKgISXLvtipp3fosxjFpOPJyk4Kxcp5gsYODJH0CJGkhDLdv/9EOkKRvqCSJSVVNoGOkJ4hvZih9od2mq8Yi1VxBWRfYoV5iCrkCCvXZ/l6r8iLgJKm8ePrd6gyBcpEk926rs45RL9XJk6SrQJJouD2/x3SS5BRmfvH3p50cASdJJ8fIz2hgBMpFkrqRp8viwQVDUMZumQ/L2AZuO696CQjkSdKVIEnXl3BBeU+ZTpJmnwq2vOXxuzkC0xFwkuR9whE4AQLlIknu3ebdrCoRqEJ1W1Xi5IVqWAScJDVs03vFS0HASVIpKPk5NYuAk6SabTov+Pwg4CRpfnD2p9QoAhUhSe7dVqO9oQ6L7SSpDhvVq1ROBJwklRNNv1fdIVARkuTebXXXT2q2Qk6SarbpvODzg4CTpPnB2Z9SowiUiyS5d1uNdoB6L7Z7t9V7C3v9ThEBJ0mnCKBfXt8IlIskuXdbffeTmq2de7fVbNN5wecHASdJ84OzP6VGESgXSXLvthrtAPVebFe31XsLe/1OEQEnSacIoF9e3wg4Sarv9m342jlJavgu4ACcGAEnSd5DHIETIFARkuTebd7nqgUBJ0nV0hJejipFwElSlTaMF6s6EKgISXLvtupoXC+FBn2vttxt3iyOQDUh4CSpmlrDy1J1CJSLJLl3W9U1rReICLh3m/cDR+CECDhJ8g7iCMyDus2927ybVSUC7t1Wlc3ihaoeBJwkVU9beEmqEIFySZLcu60KG9eL5Oo27wOOwEkQcJLkXcQRmAdJUkSScpKTBGyScsksNB2gYH44AguJwELbJN23Q97+0W9IV2+bJFMYF6YB9MMRWHAEcjnM1YmEOEla8KbwAlQZAkXz9OwkSWlcmxLJ4iVpU/3NH79Nvn3PVulZ1o3vQYzwfS6LhSApeOWj/HAEFg4BLgIDhwflEx+8Rj5z62tQkCy6KTqn/V/x4/b7SZK+Lj09nZJLJSSJhQlLU8Wf6w9wBE6GAOdqzNIyODYlXS0J6fvBR6WpufJ9M4tnJmNj4PJf/Lw8tvWQ9C7p8DXjZI3mv1ccAbIWrg3KXjAc2FeP7jkqf/TJ18rvvf8aXUP4Lf/l+2RsJUlks7lcIpEJu2GQJRzXfvir8sB3nhVZ3qUkCSIk3DiQo1zlB1zFEfMH1DYC7IIHh+XXf/M6+YtP3oi+C4rCfhmNhArX7ut3bZN3feDLIovaMS5YmDBGKvxcv70jcGIEMAC4k01mREamRNpaZfzRj0lrc1PlgeMummMwbLQ3veX/yPanDogs6QwrU+WL4E9wBI6LAPmLipJIlTA+UuA6O/vl//nDt8of3HqNYJ+rU3kOczm2vUW3SWQyuVwygZ04f1IilJTf/f/ukwcee1G6erALUG7FhQCKNgwE3zF7R1xwBNAdh4+Oy3vecb78xrsuR3HS6OS2EChnqfBx/2O75ff/5G5p6eqSZBIULZeGNGkeFqIK18tvX/sI6PyMOX5qbFKaWlvk9j//WWmFSrjShy4yqm7A8/H3gf/8bdn+4oB0dLdi5XHtQ6Xx9/ufGIEsOE4S/TIBgU82l5EESFL/gSG55X2vlPe9/UJ0UVNT5/gbNWuxdSQBQVKOnTuLi5OQKLGDZ/CZJ+pFsWfPw/rjbe0IlIRANgPxPggK+2sCRD6H/jpPgiQdHxxUyQTHCHcoXBhKKraf5AhUGAHM4WBJlK7mspjFYUcKnXDF+ycXFzXbwHjgqjGFMZHEOEkmSdB8cFS40f32pSAQGSUFUgP5kEo+myhZ4vqhwtCgNi4iSdC3kQwZ22f3NkblhyNQ/QhQimMEJReM5iq/ZwYqkWzWtxDV30UasoQFE1W+45wetxeqCCR4UFYXGI5JPM2XkIrA7DctMwKqHWN/NZskGh5xrMS7L2ySSJI4jHjwZxtWaofEd+FsfXE3njK3kN9uzgjEdwXonBkVk1IaWvnZOdIeqIms7px5VP65c8bKL2wYBNg3c1Qt6DROj2R+wY1v5bcPprIwUmYLR7Th9rHRMB2wSiuqy0UwSzJew3kb/4EbZaFBM1M600Zov43N5wl0bL3UfuRPkYLNOnbxpypFwIvVeAhMI0k2MVP7Ng8TcqRh801D4/W7aq9xtBrYSlBYGeZhXER2HdFuOiJNvoGo9k7TQOWL+HuQ+Ji1xPSNbvHEHkhSA4HkVXUEHAFHwBFwBBwBR6AEBJwklQCSn+IIOAKOgCPgCDgCjYeAk6TGa3OvsSPgCDgCjoAj4AiUgICTpBJA8lMcAUfAEXAEHAFHoPEQcJLUeG3uNXYEHAFHwBFwBByBEhBwklQCSH6KI+AIOAKOgCPgCDQeAk6SGq/NvcaOgCPgCDgCjoAjUAICTpJKAMlPcQQcAUfAEXAEHIHGQ8BJUuO1udfYEXAEHAFHwBFwBEpAwElSCSD5KY6AI+AIOAKOgCPQeAg4SWq8NvcaOwKOgCPgCDgCjkAJCDhJKgEkP8URcAQcAUfAEXAEGg8BJ0mN1+ZeY0fAEXAEHAFHwBEoAQEnSSWA5Kc4Ao6AI+AIOAKOQOMh4CSp8drca+wIOAKOgCPgCDgCJSDgJKkEkPwUR8ARcAQcAUfAEWg8BJwkNV6be40dAUfAEXAEHAFHoAQEnCSVAJKf4gg4Ao6AI+AIOAKNh4CTpMZrc6+xI+AIOAKOgCPgCJSAgJOkEkDyUxwBR8ARcAQcAUeg8RBwktR4be41dgQcAUfAEXAEHIESEHCSVAJIfooj4Ag4Ao6AI+AINB4CTpIar829xo6AI+AIOAKOgCNQAgJOkkoAyU9xBBwBR8ARcAQcgcZDwElS47W519gRcAQcAUfAEXAESkDASVIJIPkpjoAj4Ag4Ao6AI9B4CDhJarw29xo7Ao6AI+AIOAKOQAkIOEkqASQ/xRFwBBwBR8ARcAQaDwEnSY3X5l5jR8ARcAQcAUfAESgBASdJJYDkpzgCjoAj4Ag4Ao5A4yHgJKnx2txr7Ag4Ao6AI+AIOAIlIOAkqQSQ/BRHwBFwBBwBR8ARaDwEnCQ1Xpt7jR0BR8ARcAQcAUegBAScJJUAkp/iCDgCjoAj4Ag4Ao2HgJOkxmtzr7Ej4Ag4Ao6AI+AIlICAk6QSQPJTHIEIgRzeJLI5ySUTkstmJZlMSpbf4YcE3yVEstkkvucV/EXfVO7Ac7N4OEpjz0LZEnxkTksjCZQn/ILy4rP+lpUM3qT4VovJa3DighwZ4JUylJIZ/BOVysqTy6FsrETsyKK8ySRLzsqnBHBXGuUFQaZeHprFOGEbRu04vU35OTqmt3WlMWDZOIZLPWZ7fin3jfCoxL1P9PxSnhe1zVza5VSunUu5WR+dRmLtWUodT9ZGTpJOhpD/7gjEEAA9wsKNST+XDAQEk78t1/qvEhIyJiVSKf2tkocRHzxLX0mVSDQw6Stpw9PzhcuCTCXwC84h8cCfkivUgwwvoexpYY5oMs0lMloeUr5kIEbTJzklqaB/Rkx5biacu3DlXwjU4kRjJiI5U5lKPa+c9YmeGV8wp38Xf95cFuO5lrccC+jJnl0K5pUiEycq20ztMf38UyWvpdfLRnWpx0z3jeMcb9fSy3D8pztJKrVl/DxHQHlQJI6pDjhMVoV/ZyFOsYkjmpgCUVoojqHFmP0kmSOx0zqDsGpTLFQFqqMflLMUM0l65kpeSiEJ5Sx7tdyrUeu9UPjHiXe8r5ajHZwkLVSr+nNrFoE9B4fk3kf2SKq5BVKMSZXYUP2mGiDKOSAFGR+fkleet0rOO2NJRetp6jIQBYiY7398n2zbd0S621uppwr0yaRbTWASUxMZ6epqlpuu22S/o5yQJwW1YVNFy3mimw+OTsp3HngBdUhJimrCFORdGVPRRDtBitDHx8ald1m73HTlRr0dpeskiMYP65MkTUxMyJYtWxSLsbExVSWMjo6i7qYmSqenZGpqQvvdyYhMU1OzNKPPdnT83/a+BEyq6tp69wA9dzM0kyCijM5DjEZFGQQEDCKTgNIIRoxRozFPo78v+ZL/vd8k+l7iS3wGNSZGBEFRwQFFEJlBRSEqKCCIYKCBbnqex3+vve+pulVd3V1VXdXQcI42PdQdzt333HPW3XvttZOpQ4cOlJ6eTpmZmRQf3/De+7+NN3fs5gZPdnY2FRcXU1wcwqkaRjVhEYRPAdrxe58+fUIKfzV33sY+x/nxtWfPHu5T4LEPZybs37NnT7GVacEsvGabo0ePUn5+Ptu9nT6SAVptbQ317t2bEhMTA4aXw73GpvbLycmh3Nxcat++vec5E+qAExo1oat+/XiuCLPh+AcOHJD7ibGLe4zv8FrDG49xW+s8542fQp9rjN2EhPY8f6VSRkaGjN/OnTs32C3S4xYnsCApzAFgdzt1LbDw3Z1089S/EXVO4eeeJ30JaeEfhLqcEFdOEf3qt+PoP+4dEl1DMVCQiBmf5cqZ82nzy1uJejIwq+O+SAjN9It/Liyn1EHdqHjTfTJhCWeqlicsuYTg3d2RvqDn3/qCbrt5AVHHJKYkmfigC/RgdQHPoLKKqIZo/+e/oN7dUjXsyeBI/FDHr/uRNofP8Q4fzqa5c+fyIp3BJmAAKXwstZEBGsFxarAvA0rhbejPsFlSUhIvOB2pR48e1K9ff+rSJVMWa7TG3s5DvWAcZ+nSpbR9++cM0PiZcQWo9VgxVFVVyQt2At19992e84d6nlC3B9h87LHHuE9JvAgDvPkOIgDD3NxjNHXqVLrwwgs9wDSYMJ2x3QcffEBr167xAVnufuJYFRWVNHv2bdSrV0/POUK9llC3f/fdd2jDho0MkjszUNF5S/iL/EzFxsYzOKySnx955JFQD+3ZfsOGDbRq1SoBNjHiLcZzqnMSfnfz1Bo/ic4DAJI69vFiUMPANpZSUtKoY8cObLdeMnY7deroA/gjEWqTPvOBGsG3YdvG7mgtcFJb4K31++iG+16ltPRkWdThzagH4TgG3+FRiqHC3GL6/S+G0UO3fD+qtoAnCH4UTO8Tf7GUlizbRR16pMuEYqZ8CU3FxFFhYSkNPCuTdr58q/apvpq/+A2XXWDHEyT98K5XaNnGbym9Sxrbjm0oqA+29DZcCybVgm/z6E+/G0f3TrlQ38yBSSUEKltE1dbH4+DHjuXQ/PnzKS0t1XN9bkBoZu96HnPq7VHyasOmHpwY2BXgUrx07F2srpYFqKaG+WAx8bLowHtw8cUX85t7QsQ8GytXrqCvv94toEzur7xQaEO30Q94C7Kystjrwp7QKDYDYADMnn56rnjWsOj6r4Qy3gqKaMyYMTRo0KCQemTO8eGHm2jLli0CFPyXWlw3ntOqqiqaOHESdevWPaRztGTjdevW0KeffipeGYBueHQUfGurqeHkjtp6uvPOH4d9Ghx/48aNDkjyHZdqi+CfVzPm9R7hBQFjpsYZuzXiIQXgO/vsc+n888/39DkYr19zF2hBUnMWsp9bC/hZ4M3139D4n75GqRlJFOt4PniKEUKxTPq8YBUdK6HHHhxBv8j6XlTth2CaATgTHnyLli7bQek90tTLIMRmBRCYZAoLK2jQWZ3pq1dmaZ+8KCOkCSvcC/Lm+nGvECrjSbmwpJo6DP0TJbaLo/gUDl/y2lnHoC22zvHIuU6GKbWwqJKuOrcbvf/cNN4HFle7qw2Cn3TDvYbW3g8hiwUL5stCY9720QevR8m5jfjUCU8G9qopKDJv9AKiYWKHsG/CT3hLR0gE3qRRo0ZR374a2mxpW7FiJYe2dvJx2VuoT4nPnVWQFE8zZwIktW/p6Zrc3yycCKUpSEpikNQOD4TffgBJBTR27NiQQZI50ObNm+jjj7cwyE0LePw69vgCJE2aNJlBUreoXrf74OvWrWOQtIVBUge5F/X1AMm4J5L+ygAEnqQYBkl3ht0ngMNNmzbztfPLpN89N14hr1dOQbPDAnCd05OD6/mbdxud13AsHAdgv6SkhLp3785j9zrq2rWrZ59A3r9gPIIyUq0nKewxYHc8RS3w5vq9DJJeZ5CUyCBJ3cHwe8CDhLkfD3Exg6THGSQ9GGWQ5L4FEx98mz1JX1AGe5LQB2UjOfABIKmAQVJfF0hq1fsn6EdCgwBLcU6M7A/zPqIHfvkOZQzooW+zcMuzHevZ4+H2bpnlq54nxOqiclr5j2l09QWne97+T9Zwm4KkBc7beOMgUCOS8AjUOPIT/jc3zuPJ8IIpPZ57YcKCA68KFu5jx47RBRdcIGAJ3JWWNAVJu5xQGu6merZM84KkmcLfaY3WECT5nxUgKb+FIGkzg6SPHZDU8KqOL0j6mEOtneSFJYYzSxUgaShXQVIdg6S7w74Vn3zyCYOkDR6A7/8SY8LFCtjh4fQ9lT7TvlxDM84Nj82fK4eofHFxCZWWltHVV19NV111Vdj9NztakNRiE9oDnGoW8HqSFCQp7dT7OJ8oIMl9X8STdFxBEsAPZAcwVWp4EO38m1+g7V/mUIfOyVBNUA8YdxZJ/g1CgPicvUzFR0rp1z8ZTL+5WydAo650Mo7D3NwcBySlNCBmm9BDLBPesdjqghEojIHwhOGcwEoq+aAeFV+rud/S8TNIx+B8TJkyxUO6DsfODUFSY54kgKSWAbJg++cLkkDeDuRJKowQSIInsCGzBd6Mqqrq4+RJUpCk4yhaIAnhNsND84aDdZzpeNXQGyRV1NtpxrCOzcbCx15w7w6pKfCKkxcugHwApSuvvFKGRLihNwuSgn2i7HbWAo4F/EGSeYzNO48FSYGHCoAPZ+wrCZvbF98coQvH/YOSu6ZQOwAj9iLhrRaZeA6V1OdAmOTaMam0KL+E+vTMoN1vzXHee5XAfTI2BUkItzUGkryLivv6vaRV/FX5Sv6LhAFJvqEPE5bT/fCVn1/AXI+zBSyE2xqCJPeRYhxOEsJtAEnR5SSZM/uCpIZhHVw7OEktC7cZTxKAQiCQBE7SqQSSNKzmHnNukVHjbVICuYb+vGFm4/l0aA0OwjfA3utl8oaRAZSGDRtGl156qXPe0MRD5Smw4bZwH3u736lqAX+QJA891n7HIBYkNRwZwnkBN0rmPOVRPfTUBnr8qXXUoXs6J63xm6RkqyHUhn81C8u/IYTICW5Uvj+f3l80g679/pmeifRkHI9NhdsMEMJigvAYQlZmQcHfsPgoV0MXJqTf43d8R0gLb9xm4fbPBFKOiloUpP+8vHxZbC655JKwzGzDbeAkNWwnQritdT1JagPjMcIYRXZfXV21hx+HcC/+Dn6cAiD1emJMY+yCu4afDdncDf5hT3xmiOH4vbCwiKZNmyYe0XAy3ixICuuRtzudyhYIDJL4IXYW9RMFJLlJ3cc73IY3Q4GRDkDKLyqjEbe9Qp8fLKCkxHZCKHZPiPK7QiZZx+UdXLzz7DNiQlPht4U0K+v79PyvR53UQ7F5kAT9pDI655xzaMCAAWILACGAICwm8JYAJAFAgYSMN2to9+C4WHBAKDakbQVE5m3dC5Jw3+DtwGfw9GiGWsNyMU3diLYJkigCxO0Tn5MUXZAUmJPkzTCsEi8PSNaaRFDv4b9hzKpEQoWEfTF2Dx06REVFRbINkhnMC4CXm2TmEeU4gacHfa5OnbrQjBkzPOM2lPFrQdJJPcXai4uGBRqCJOSQQc5QvR8nAkiqw5uXSi0K1DjeIEneHkE6ErmBWNr4+UEaOmshJaZxRhsv1sLr4j7HORMlODSQAQDTG3ApTjSCHCszgKqo4DfGuDrKf/8eSkw4fkKY0Rhf7mM2TdxWNhxCQiNHjvRJfW6qX3hDP3jwoGRd7d+/VzKcvCKP6g81WXAKuvQtHgsVOB6XXXaZZ7EJNkPIgqS26ElqWXabErc3MZhBdps7+9SwOGNYGLWcJk+eLBlpwTQApv3794u0AEB/x44dPd4hL/BpyC3LyTnMAH+26IH51xJs7rwWJDVnIfu5tYCfBawnKZwhgew2Du+ILHkMzfnPFfTc4m2UxtpICLMpsbiWl/x41c1hdfC4OPZmsBoyFuxazoyLA2eJ/2OHu6hsF+/LpX/8eQrdev3Z4XSoTezTNEhSbkZhYQENHz5SBA9DbV9+uZ1WrFjB3qFk9j7Fu8IgvtlnOC4WKGgKzZo1K9TT8Dlsdlsgo5384bZAniSMWwUyZWWVNGHCBFE1D9QM8Ank+YFQ5/bt21lUUvl6jQP2GJYGKGRP6yAaPXq0nMZ6kkJ+hO0O1gLBW8BmtwVvK7OlBM8chiUoMr3GzKWj+WWUAg0VT5aVhtiqWNgwPSmRKmuq+Gei9qIozpMgAJakK0NnoY7d7pV04/ABtOS/bgi9Q21kj8az2wyplUOPYYAk9yLxxRfbac2a1QKUYrW2jkcWwJvthr+y/ldRsYQtUM4klGaz2wJlt2Fhh07SqUTcltHFXwrwmwNJ7jEWCNhA1RseK4hiKt8oUDacSmOg/My0adMF6FuQFMrTa7e1FgjRAja7LUSDYeqCeCRY2wxw3v3oWxo7YwFl9OrIGW2MmLguiuiksHsohr1HRdmlNGPKBVTKQpNLVu+mjI4p/FktbwtyN8JwgFLsXWKecgrvt3p+Fp3Tu2PonWoDezSe3WZI1+GBJP9LX716NQEsITTiFRb0BUvgd+TlFYoCNThQoTSb3Waz27yJGOGDJEPgdnuYFi5cKKE3LafjVXJ3j0+EjMu59iNEO0877bRQhq7NbgvJWnZjawG2gM1uC30YaPkU8KPi6fqfLaF3lm2n9N5cY449QmAawXWhGVm86O/OpTcXzKSC/FKayUKTaZlYYBhkOXXqwG2KYaVzfC/m8i9/fOg6un9GeFlXoV9J6+4RDCcpHE+S/1WAb4TFBhpFcUyMr2fgamrFmSw3LEwgwV5++eV0xRVXeA4RzFu5Dbe1RU5SJMQk/XWSMGxCB0mB5CtwJHiVwVFatGiRkL9N9lrDp7SWQ24VDPBHU//+/UN6iC0nKSRz2Y2tBRoDSTa7rcmxIfXVYqWsSPcRT1FNQiwlc60uvF3WsTcIauUxHOqprOaU4CP59N36++jb7AK6OmsRpXRMYFDE3iYJ2aknSb3FFjAAACAASURBVDNX+Hi5pXTVRd1pwwtZJ+XQbC2QBOO9/vrrkj2UnIw3ciM26SvDgKKwWGSuu+66UwAk2ey26ChuRxYkYSCiCDTmg8bV2msltAcFbtQlDKVZkBSKtey21gJsAZvdFsYwcISg/8YepNvvWUodzurEZGyE3+BHYgDE4bRanuRKS8opk3lKR1bdRbtZC2lI1nwq5FhdAqf81kIhyVGOjuOst1ret4pJSxWFNbRn+e3UtyfqUKlnCoVyVZGhbYtMBgeSipm4PTws4jYsZAivyET68MPNrMKc0ShIgh4TMpFuvPHGkAZB2/QkneogKVrZbd6QWCicJPeAM7IVKjhJtHjxYjpyJJsBPrhfgZqCpB/84AceYclgB7AFScFaym5nLeBYwGa3hTcUwAu47q7X6P1PDlB6OkpPiAqSE0bjnzmeVpxdTrNuHETPPzpOTjL63tfovU37KS2dvUlS081RTwII4vkxnivX5+87TD/7yRB64oFhKuppdJVwhsbLnYV3Ea28V3AgKfzsNvflfPnlV7R8+TsekBToUgGSUIgVICmQindj5mmbIOnUqN3WujpJBiBpSZJwQZIZZyYMt3LlSkKmZloaXpQaKpuDq1RaWiFhYqO+HeyjbEFSsJay21kLNAKSjOqHVdxueoh88U0uDb35RSpvF0vxnG6uUpGmRhsrQ3Nht1LOeHvxsXE0Y7Sm9f/uxU/okd+upIzTWPSQP0e0Tcib+FAQEO/DwpRdu6bToXfu0AnSvR2Tjdtyi1Z2WyCb7N27l954Y4kLJDXUmwFI6tHjNBo/frwcIhg+Eraz2W02u01du1pwSFvLQJJ77L3//krasWOHU0jYd9x6RSVLGSRdSd//vpYoCbZZkBSspex21gKOBWx2W3hD4YlF/6Sf/+d7lMG12lgByQm1qQQn/q2urqMMBjirudzIoNOZ1M3tn3uO0cXjn6XUbmlS+FZI2yg7gHQ5NClBQFRyIJc+WHQbDbuUSw9gGuZ/oLoU18ZdSa2V3QZTYpF57z2+PxmsXRUQW0L8r4IGDRpEI0aMCGkQ2Ow2m90WTZC0cuUK9iQ1DpLg9SwtLaVrrhkacljagqSQHnW7sbWAzW4LdwxcPPl5+uzrXErOTCJOoBJxydiYGuYW8Xf+tTCvlG4YNoDeeAJeCvM2GEMXZb1In31+iDIy0zk0V8fMJP0MfATwaeKhBp1bSDMnfo9ekDIlDI84OwubiYB3G26tGW5bs2Ytbd36CasYQ3MmkOFiRJMJqtsmZBG+J8lXrBIlKFBGRQvcgtAf/eZb4DbQOW24reXEbf/stsh4kvyFI5GZeewYzy3JmgnbsCG7rZzGjRtHZ56Jeo/BNwuSgreV3dJaQCxgOUmhD4SvD+TTgOueocTMZEqM50KrCJvhMI7bJ46BTgGH4154ahLNHHOunsBRMvyfRVvp/ofeovQBnamOudvwKJnPHD44lVdUU+/UBFrDmkm9uqayX4pDcrJ/20ZJrQmSXn75ZVloEhMT2PiBQVJ+fp7wkfr27RtSsdC2yUk6FYjbKOvhDoOpSGl1dRX/PRISAP6K25HjJLm1kp588kkZtwDaJpznBvD19TWsk1RFU6dOpS5duoQ0gVmQFJK57MbWAja7rekxgEkQwTOdeFE/DpPWw39eR4/9YTVl9M+k+lqk8ENGW2vdQRupnLPUaitrqGDtfZSW3E5CZSBgw01eVFRBGdc8RQnJMZQgCzg7oZRtyjXdOMuNJ/OYWi5kyUKHrz85jSYMPUvqvWGyR524ttyCA0nBZ7eZN3D/N/Hs7EP0yisvC6dDP2MgC268o8CtmLWeQxbldMcdd4hwn3+GUVN2tiCpKZ2kShE57NYtuPplkRjPa9fCa7hV+Ge1tbjfJr6qhGoFSdHIbjMMTknZkNptTZUlaepaDQhCmHjZsmUMfjp5PKBGdNLUaYPXEHXebrrpJvFAh9IsSArFWnZbawG2gPUkNTEMBLyom0hwkLNp95FchqSwglK5oC2LaksZN3iD6tnTg/m58Js8mnkLh8v+c4yQucWTIfwjPcL4n71Kb36wjzK6pHgKVArEwjEAtFDLLaeExg4+i5b9ZQpgFHQqhb/UlltwICm47LZAgnwmQ23Jktfp8OFsR7XYiEmqPABuJhaWoqJCDlX0pxtu0MzDUFrbBEmtE26rrKzgIq9TWhUkrV+/nrZs2eIpEOtbfiaaniSB2/J8ojWX3dZcOLe8vJwWLFigYfd4zBVcLFvKHKHkC8YtXsJiKCcnR3h0l1yiorPNHdc9ti1ICuVJt9taC7AFbO22xocBFwth4KJ8IOPEWcFlSK7jrLb0Pp3F6yMMJA+WqqcantTKWRNpw+uzWBjydPECCfRBFVt854lu/ntfUtYDb1FK51T2Huk8K94iCb3xt7g6qixhvhIXhjv6wd3UKS3BKCa16TEbyew2o0Yste9c7aOPPhJ9pNRULRRqbp4uJLqg4G9FRUXs8ZhKvXufHrJNbXZboOw2gNB60fqaNGmiSCu0Vlu7do14klDzzAsa8FOkw20tU9z2DZkp+HG3d999l/bs2SNjF3XwYvhtyXiPzLY1NTVC2v7pT+91wnEWJLXWOLPnOUUtYLPbmgJJqoqtKtrqSrrz9x/QMy9+RBndMySEw59ysVoJtBFjG1bhLqOeDH72v3en8I3AJ8K/AFuCpfgY32YX07Cb59Hhqnpql4DJUj1NdfwhjlHLYSEcr/jrHHrmzzfSHRMu0pfVtu1Iokhlt5mFA3fOvdB88cUXnNG2nHWr0oQwrdt5FxqjbF5WViqLODwe/gtVMNOAzW5rLLuNCzpzgdtp06ZSp06a0dkabdOmjbR58yY+Z0e/cJvWBIwcJ6llIAm2aGzsvvPOO7Rr1y4H6Hm9U04k3pOhmZeXTxdddDF7kkaGZVrrSQrLbHanU9kCtnZb43cfItrMEpLsMuCY/UcKaci0BXSoqo4SAW4wBaOQLRe2rY9lkiXqrx0tpF/ffQ395q7BWlxVkA3QlMmAUrQz+/8tp38s3Ebp3TtIwVuT3QZwBJJ2fbs4KjxaSv37ZdLu12adFEM0kuE2t0EAvjZv/lDSpjMzu0BJwQOQTKq2EnoRtoCyeRVNnz7ds5AbTlOwYQsbbgvMSQIgqWXvZ/fuPRikxjvhTX89oUgNZfXExHGJn9zcAqnDh3OiKbAwnpoTCyS5rx62OnLkMKEgc3Z2toxHDRlzAWzh0CkH0jSE4+Atmz79Zr5ub6kdf05eUxa2IClS488e55SxgOUkNX6rlZLk1FbjyWvRit00/d+WUnrnZKSlOVE2xHDYX8Sf11azN4i1dz544Ra64rwejJlQVIQ/By5CEVuEfLBY89z3zuZv6XqWA0g/ncnfIH07nCUhEPOxwDHm5Dcq45pvny27ky7o27nNj8mmQZLyOgoK8rmW2lg691wnK7CRqy4pKeHFMZf27t1Du3fvZG9BNYcpEG7B/YIHCfaGpwkLjaZqAygdO3aMRo8eTRdccEGDI5/cICn62W3GzuXlZRJ603vRMKwUyYGM8yQmJlN7LvVjyPe+6umRBEn+2W24EuW5oYGT1FzGGfpYWFhIR48epa++2kHffXdAxmlKiqb7Y+xqAogCJCMeiTAbQNLEiROpV69ezrah29aCpEiOPnusU8ICtnZb07fZq6IdwwDpDVr03i5K78YgifP+66RmCL/N1vJbXVwNFZXV0KX9O9Oav06jlESetJ28OMP69s+g6nrtXyinuII6piUxl6lGQmx1HNYDZxPcJnwvOFhI//HwCPrV7Muko1juOVeL/4W7RL+1ldYUSDIZPPDyZGZmyhf+lpyc7AmJIaunoqJC+EQgr+L3eJZgiOfiwpoubRYsQ3iFZbDQMIjlt/OcnGMswDdECoO2pLVNT1JrgCSvHlhL7BvqvgBF8MrA89IQlEUzu01gjVHwkFAfagGmp6fLJWDsKvCpl3GLL4D0goIC8WYiJIxxq2NXiY3wCsE7BvCHccs/Cs8rJyeXw5jTqF+/fqGax2d7C5JaZD6786loAetJavyuS81ax22fz2Cm04i51J6BS0JKe4oViRSelPkHeduLi6fCb3PpyUevp3umXqxvtRDidlL/zWSpmSpIU46lR55cR7/7L5YSGMBaJ5ASwPa8Ya24QBT/lJXXUN+O7WndS7OpawdUtAf0Yv8UQnkMqKDRJFpLbaA17UlS4i/CCFhM8NZsmjsFOo7tnJDQXhYY2NJ4jHSR8XqM3AtmZWU5H6+SAdI1Ide6CmTWtgmSop/d5raVycZqjWFpstn8v+u5o+dJMskDOIvhtkEGoKqq0gN48HdkpZkxnJCQwOM3wQ/MKbj0aiXp8WLYw1xSUirzzJgxY1oMkKSffBIDZVvj3thzWAu0eQvY7LYmbqGTdYYJ67kln9Ocn79OqWd1Vc6QpKQBnDBkYb5RFYOc8qJS+mb5HXRmN+YZsWdIQBTUlRwM4/+Wu4dFKfuPepqSuiRTu/bxUhwXmkog1cTxWykS62qruQQByw2seG4Kjfh+b5n0hQ2FMIakwrUdV1Jj2W3elG0nJCkLhO990W30c7P4eUGUWaS84R1sW1NTJ6GNlJRkDrGNCVmduLGRYbPbAme3+drLZBZGf4r0Tfl3ny+62W3esK7JnDTgxjuOTSjOF5n4wxTjjVKbQdcLXtL8/ALq0+dMGjZsmCQaRCJ0aUFS9MejPcNJZgGb3db0DXWUi+iqOYto06Z9lMZZbULFBncAaW1ckwRRt8LDeTR48EBa/+xNDpDhCRPFadnTpORt76rvJlpeMvUF+uyrw5SSmSp8JeEnyR6SN8eniKXS7EK6h3WXnnwEZUr4ZMIoh8glfEptDSTNd6XnG5Kt3oPmHGKBvRMNvWgIvRQXl4rHDtyjwYMHS+gjEosM+mmz2wJnt3lBq8Pja4WCzCZjUcNt/mMhutltkpjhAHeMXTM+8V09Qd65xQ3kvOO44dgF9wjAHiT0yy+/kovYXuE5SCTGrwVJJ9kCbi8n+haw2W2N2xiFZyHguP3bHDp/7LOU3L0zqX62CXoh903T/4v359Hrz91EE7hemypkq89Hy4n41vZyn/GpV7fRPb9eTmldOkjtN/EPcRgNrnZ4iWL4byWsmZTC2W6HVt5FKUmOlIBDKnfgRfQHSgTOECjcZoipXqIv8J938fBfGExIDvwP5aKwzfggWCT1ZxIRyYEDB/Iic7kjKGn0kfQiTOgj3Euy4bbGstu8QMEbBg3XysHvZ7SvAss5RDLc5isB4D92g5GT8IYEdcwCyOM7/g7PFAjcF198CReuvcBHTTuUDLamLGdBUvDjym5pLSAWaCucJAM6AEjwhlZYwBXcOePrq1dmRe1Omgnt0ec/ol/+/n3K6NWJnTg1opkELlCMyGDHUVlRJSUlx1L2iruZsB0v4EgWdwdANeUi2bE3l4ZOn0+l7WNZM4kBEpPAhY8kETUNp3Ekj0r359LSf9xC46/pq7XchIzkJSpHzQgRPHBjnCQvF6Nhtk6gz0zITUNqCGuSlCDp0aMHnXHGGVLPKjUVISHf5t6vJW/lbRMktQZxW+0NsUMs/MGAhkgML4Bik93W8HiRBEkNs9vcoMf/epsaY9hWEw/ihejdu3dvOu2004T4jWsxYD7SNrQgKRIjzh7jlLLAiZfdplkeEx98k5Ys+4oyTktj4IAUezB8nBATTzACkjiT7KtF0QNJGAhllVU08kev0Md7cjhkgzRj6R7/j8K27OLnvhQdLaascefRPCZtazN8JSHSND2eGOeM/dlr9O5GLlPSIUm4x5I1JwKTKi0AVe/C7Dy6YewF9MYfuIwGg7M6lEBRISftUBtozRG3je2qqxmIgpeF1B5YE4DTz45YhAGQUKAWmXD4XLOEnKM4JBD3fu7jWJAU+oDZvHkzffzxxwJIAzfck3rq2bMXL/Tsc20FoKQ6SbkSosL9bwgqopfdpt4dM940iQDAB4kFvvIHJiSuMhfIbIuLa0czZ870aD2ZsY7PQ9XtCuVOWpAUirXsttYCbIETzZOkZMhYmvDAUlr6zk7K6MEgyeE5Gn6Q15PUiT1Js6N6H1dvPUCjb3+Z4tMSKaYde3ukoC1/Id2Yz1zLC3pZaSWtfGaaQ6wOvjtS9oQh0Esrd9Mtd74spU7US6QXLPJKzixcXV1LZXlldGDVT+j0bulSFDeWU+dQfFe0mNpAa04CAAtLbW01e4K6U15eXoOwmOFyGI8Q9Hg6d+7C4nrTGoAj/CHSb+HmJG3TkxT97DaU0gAAuPnmW7jYbIdWG5GbNm2WUjQo+qphWPe9j6YnSVJcnflJ+U9du3YV7aOkJG/RZNU80iC9SlKw6GxxiYTVhgwZ0mp2kmfCZre1qr3tyU4CC5xo2W3mLWrig2/QkrcdT5JfMogBSQP7ZtLOV26N6l148I+r6b+f/5TSuyZI/TVEuTzCKAxyKipiqX+3BFrz/C3UpYPqogTbHKcUlZRVUY+RT1MF/yE5CcrdgEqOf8h4UOCxOpBLTz02nu6aeKF4k7R4iaCBYE95XLdrvnYbh1HZIzB27A85Zb+MVq1aJaUmDOdEFxgVh4phgIjFJz8/n84773waNQqkdm+L5tu4zW4LlN2mStEASRMnosCt1m5riccu2MG6bt1a+uSTTwSY4VEAUFJeW7Sz27zEbZwL1w4tI9QP/OornrtYHdvLl3J4is5chrFbUFBIQ4cOlUK17lBwsNcdznYWJIVjNbvPKW2BEym7zV3MccIDb7InaQd7ktI9niRzo7wgqRODpOh6kvqN+yt9e6iIUjqwC51BElSb6/ilMZ7fmus5VbeIP/v5nVfSH+67JuRxJJQmxxM/5ZFl9OriTynjjEwt5+AChoLL+KKLi6to+CWn0Yq5N7GHib1IWjTOIzEQcgdaeYfGa7ehvpqKAQIkXXvtSMlKW7RoAZdtOCq12NSbaFKlIbYHoT3VnCooKKaRI0f4qGibRaelJO1AJrLZbYGz23CPKioqpSZe64Kk1QKS4ElSArSm5EN2NbI6Sf7EbRCukbKv2avQSJo8ebLwiv70pz8Jt0g1keDdwtjlELmjmQQ/McBcWVkZ73MThyh7qofac7zoPJwWJEXHrvaoJ7EFTtjstofepSVv/ZM5Sfw2xpOJ21tiQNKAvh1p1yu3ee5O43op4d3AVVu+pRHTX6SU0zvx5KZFajG5yXkYLNXyIl2aXUSfLp1NlwwIveo5T5P8/qm8m092ZNP3xz9PqT3TWJgSnhIFABIywuRpSMqlNbTyH9PpqvNPY2eS83mb8STl0oIFC4RU7RsK0xxBtMJCLv7LujAXXXSRvJn/9a9/FW4SFhy3BIAuKPomj79DUwYlIUDcdrdoeDJsuC0wJ6murkYK3E6aNDliuj7BPLlr166lrVu3iifJ60Uye0Yy3NYQJHnOwgCooqKcJkyYIIDnwIEDtGTJEpGegECqAUleeQAd8+AwQej0nnvu8RC2I5XJFsh2FiQFM6LsNtYCLgu8uX4vjf8piyRmJMrijCYBDUECWJ/Zg3GshB5/cAQ9mPW9VrPdtT9ZRB+sP0AZ3VMVJClbWhws6GUhCyyezcTtL4W4bWL96F7o9Ywau6hbfrmMXlq0jTL6dOI+OIn90gf2YoBMnVdOgy/tSeufmx4Ru1wydR5t+/oIpXdkTR+Hl+QpfAswwG+jJUdK6T9+Oph+9eOrWs1FH5GL44M0nt0GsIOzMCG/sIiGD7+WU6A5pMjtyy+/pPfee0/IwvrG7k3nF5kEaVigKsUet912G/NBmADvtFMFJAFQzp37F16Uk4QUHKihHMbYsWNp0KBBYd3S5ojbykmqZJB0E4Okrq0SasOFrFu3zhNua3i/IwmS/LPbNHVf5Q7gSSqT2moASe5+IWQMeYoYzoQ1Hk7MssqdihV+Uo8epwnAcicfhHWTmtnJgqRoWNUe86S2wNvr9tG4+16l1HR+42FvCbKm8ORLJpngknrO3iqh33P9sIdmtB5IumzWQtryyXeU0S0F9BtuyPRivwtPxLXsWSjOLaFrfnAGrWXCND4TWUXh6ejEE2rzZqrovlWs1txh6F84/b6GEhOQNeMASITCQJbmcFdhXgWNHzmIJo/oS4cZMKlzP4TGs2RsfTX3PZE6p8bTi8t30JqPD1JKqi5y7vR3OScLVxYdK6fzmYv12asaZgSYimkF0b4QrqrRTZuWAFDLwZM0fPhwD0jC31asWEE7dmzncAo8BW4Q7OV5wNtUXFwoi83EiZM8gCqSb+XmfqgnaSdrMCU5mUi4815eGIrtYrFD9hLKp0SzmetDPbu///3vrLMDkIQsv4Y8NfC3kA3Yt2/fsLoUHEiq8niSwjpJGDsBJH366RbmAEHpHllm8NIYAdfoZbdpV71AqYyLWxtPknl+X3rpJa7XlsMgn1/2IB3ilCQyoTUALCRx5ucXCpEbHKVoNguSomlde+yT0gJvrN1NN96/VECS1ABzMqY4kuTE90kAyX/94lp6IOvSqNoAYKiegRoA2qW3zqdPtx2k9C48uagckbi4RMCNO1d4sJjGjO5P7zwxEVBBs7zCLfjqsKT1LU91mJ57+wuac+9r1OGMblTFgo5cNMTDdVCxR2Y8cD/yc4uIsrm+Ujz4Qd4MluYNxduCUyTYi3+uZu9U746UkpHA1W29a5znzVhCbtwHBkUl/8qn9a/eRoMvOk2z4U6C7DaT/VNYWMAgaaQPSIIN5s2bJyAoNTWFgVLDzDUZFwxc8/LyZbEB0IpWW7nyffr6653CN/FyX7xn0+Kl7Skra4YnhIJPIwnY/K8NhVPnzXtB+FvwWARq2Gb69OmeKvKh2ufEBkkfc7iNPb6Cm034NtLE7YaeJC8YrWdPUqUPSEJPUINw7ty5DF4TeUzws+08q25qgCYjYOwWSI228847z3NrzPPv5muGet/c21uQ1BLr2X1PSQusZG/N2DkLKSE9Sd6+ETs3aaoaumJyci6HeO6/hivRX94KNtLznznhb/TtgQJK68DERwYTJrSClHmgoaJv8ijr1stp3q9HCTESAALyQmHhBZA9kS1lKszyYSb+nLPr1uyijI6cycMzGlLuPbXDeGXEtpJJwzYCoISnyfFrBG0jKVAbx274Wr4mDh3V8jGlLlwAXSCRXorTMF/BN/k0Z/Zl9OyvRrUxkJTjx0kyfjdvinQgkASD5uTk0IsvzhM+k9GU8aViaeYbbAci94QJ4XtMmruBCP/t2fO1pHmbUK/uozwy6AOhzZo121PMVD6NInfsu+++o8WLX2FvSrrj9fR62UwoE7IKs2ffxrIJnZu7xICfe0FS4Ow2Dbd5OUlhnSSMndST5A+S/D1JdXTnnXeHcXTdBcTwTZt8OUleMIYtfEGSO1vt888/p5UrV8q9cRde9nqKteB1VRXLiXDIbs6cOR4xVPdxIhE6tiAp7CFgdzxVLbDq0+/oeq5LBh0gIQxjNRYPhyNkyC85BXkldDeH2v6XeUlOED6q5iotr6bOo+aK1yQxAW/F+GI4IuKJcYKDirhUyCMPDKdH77pas0IQupJeheFOcjxYiC8idLX7QB4Nu3ke5TFAbNdOiVBmcvNMWgCUkMLGGRmdxfLiWCd9Cz7gJj2VDDd4qRAylOR2BWx+aA9HjQNYg8J3aQWlJMdTweqfRvU+RPrgublHGSShdps/cdsEKjmEGcCTZPqB1OqNGzfyYgN+khK2AQC0pImCEHxhoYYgJfhJKPMQ6fb+++/Tzp1fCik3UIAVIAnepKysWaKmHK2sJbdnCtytt99+mzWm4E3xAiSTTVVTU8sk4Wr60Y9+5PQ7dKt4QVLg7DbcBwuSlLjtDpVjTC5btoz27v3aAT++L0J6uzB240StHBwmJCEYflIkx48FSaGPe7vHKW6BLV8eputuX0SV8XEUh5CRyw+MhVpI0sc44+iyPrTqr1PFWpF4owlkdiMkuW33Ubpk3HOUcTpzDDj0JKBBvlSIDQG5Ei7T8fpzU7lW2kCnTypCaY4R6m11c3ueXLyN7v3NctZG4sXYUfmWgrLgasGj45DDxU3OExucb3BCqe1CObNUauPj8jHYkxTL35Hxph4HX7eYCmni+thLwXyX4q+P0vy50+iWMXr9baE1rbitocrGwm3GC/PWW2/Rvn37ApYd0bGJMCiHJEtKhaMydeo0n5BXJOy0YcMG2rZtKwMwA5KUkOutV6ZigTfcMI7OOuusSJyy2WMgw+vTTz/hBRa8LW9xVfM4A7QhQxDAMdxnuG2F246vJ8nfxshie+mlhQxUKxqMR5OlqTcZyQuFTK4/W0JvaJHU/LIgqdlHyW5gLeBrgV0sUDh81suUz0TlduxJ0rCTBNr0keU39rL8claSTaGDy+/0eWgjbUsDC55ftp1uu/9NSjs9Q1Y9D2QAF4hBRBV7fMpzSmjn8h/TQObxCKBwQmXhAThfZs/Vt75EG5gPldaFF0F+O8ZZRbpRwmyOr0p0T+DBYlK3MKIUPIXUPH2GoTmUBlkBFLWVI+l9kNCnJvY5IT8l1RfmldLk686hxY/9MKRTHs+NIwGS8KY9f/58sb2pceVekHRB0ZFUVFQsUgJDhw6L6GVv2/ZPWr9+jXipDCfJ33MAkvTVV19Nl112WUTP3djBFi9ezCHJo0wmR+kclZBw815KSkrEwzFp0iQ5RDjPiQVJoXGS/G189OhRev755yXc6c3UhAfU6H9ptib2A1AaNWq0CKWaFs498x8vFiS1yuNoT3LyWKCejuRX0JAZ82h/QRm15wlW2dpOuj08J4iVs6u+/HAJ7fvgLurTU1VkRZ+GDREWWdoRYoSyNEJNqh0tjA7+N45u+eW79NLbnzMfiEm6IEhD6TpW08ShK1RSVEZpTITM+eBuzshzIJSLTxT6/YE3h/00fKjDuWXUY/hTlJDWThYcraVWS3FceLaGPRRogEXVyHJDiI+/1SLcJmbzcb9olAAAGs5JREFUD5I10xODCr0m98CsdgyW4LlCvds4hPKcrMN4Z/GrrKqlzpzEtHrhrdQfWlIu0ns4EcfQbRb6HsGBpIbZbf5n2rt3L/NvFjNwz3TGIkCBZg6hGQ4OfjcZXf3795fPzDZmkQr9KohJ219zaOstUVR2isc0OAxASa9evSQl3Jy3Jec0JwhE/kZmG/SnEJ6BJo8DqT0gCWEc8JF+8IMf0FVXXeXpa6hE8rYNkmKYk6QveeE05SRtYg8mvIc6W2kzJPHAxG3/cxmPH8aOekcNmHVzyFC4uVrkMNDnxmvlhX4lFiSFbjO7h7UAjbnvDVq+fjeTpJkrgviWkJB1BYdgYXvm2uTtO0r33TOU/uffhjqRILz9wIMCQBVGyr1MLry4uSNUPGns+q6AhtyygAp4pU/g8B8+r+V/cAYOCFINA4fi3GKaNHIAvfrHCRG5ewAjuKhYvo6HnlxDj//3Gsro153PxaRqhx1k6sbBi1PGKd4xxWUMkFRQUuV6wEcyuj0t6xamzmqWBEhJak8xXDAUIb16TnlDXwCWxKvEv5ccLaW5vxlDd06+SP7ipMqJ90sJWiHF/lrW6SD2Dg4kNcxuC3RoXWw+ZVmADEcWQDMO/RuK4AJEgIsDRWa0lr6Rg0S+cOFCCbdpokPDbDLwc0pKipkoPdsBU3peuSstJHD79x8LOEKAyGxT8ri+UJjT1PE4hQcOmW2oLRZua9sgKRLE7dA8SYHsjCHw+uuv0qFD/2LAxTUYXTq5uK+qi8bJIAx2cc+QQZmVlSXfI9EsSIqEFe0xThkLOOpC9MunN9Cj/7Oe0sVLhKKrDugx/nqecEu5vlgHLvB6YMVdlJyo2i+1/Lk4V8LQ6fHU4BIsBiCgK9xj//iYHv7DB5TaBXwgQBP22whwc5xc7PEpYY7Ui4/fQDPGnBORe2W6gHP0YS7U/kN5lMGAUdJuTdiRz1TH11laUka9umTQwt9fzwTqWqoGl0i8OE52XAt7ZPhI9zy6ksuhFFByGmvxyNIHLhbI2w41nMEZ9Kuuufh0WvsCxCwV6HFH9MfQcWsLe9787t7abYa4bcKTzWe3+R8dWkTwJuXlHWOwgnsF76YvSMXwxaJTWopCuJ2lZAR0i1oKkkDMfuGFF/htv8oh15qAsLuXGu679NJLafDgwc0bp4kt/Pvr/h1cl1deWczXWMLhR1eSgzxS+kyBsG0W25boNtnstuCz2wIDJPXAQ9QTIWOEi5WcrSr+puG26dSrZXrOPffcBrUJwx1QFiSFazm736lpAfE4xNCKj/bRddNeEO9JHb95m1IYsjgjvMP/QaCucH8+PXz3VfQ71ClzQkSyEIXosDBhOln24YVi8Tek9hczEOs87E/8ezwlJnPqP86L87DXCR4ULKW11fWUwh6sdQtn0sDT1TPQ0mZ8MB9/dYQuv/45SjszXRwzsexBUy+T4jjoMxXszqUHHxxCj/90SEtP2+T+DzNofezZzZTag9PMQexmbwD8SfUMBMCDYl8TIeRWyfXc/vXBPdSzMzKOWGiTC8tJxCWMJL+oXhAfvKXZbf79O3LkiCw2WtgUg1BT703zcnLiGbAU0vnnn8914a6NyGUiWwlht7Q0FjsVD0DDhwAeHIA5ZCp16tQp7PM2Beq8XiSTlq+ZoG4vYgkDeyy0ga49lJCbzW5rGUhyD4CdO3fSa6+9xuKnPeR+mfI6JltTsxI16xOgasSIET7aYeEOJguSwrWc3e+Ut0D6kP+lEq4hlJGaKCEtk04tvCGHDwP16ZJ/FdPzT0ygWePOFZuF81auoSvnXwEjusBcyNpIn+/Mo/ReKRTLYAh8HAFQPFlASVdUrrlW2pyZ36NnH/at+t6iG+hwg+b8diU9t3ArpXVLI5YvEt8NvEcg/MAGVQxKKnLLad/qu6lPDyjoOraBFID0NUS02ESntzEYG3zLPKLEeH7bVP0qZPXVsdsqDkQt3BMocO/MpYcfHEq/u3eII5GAEGkNA1doL0WuPy2yr7NzJMNtpj+otr506VJPGMmELPyBEv5+9Gg2l+X4IS82F4U1bt02AC/q9ddfYw8VwE9Dt515LiAmCE7JlClTfMqlhGtPN6g5dOgQg8QXGSRm8Bgxqt/yKiEgyQgQQgn6pptQKsRbXzAUcGT6asNtkQNJsCn0tnbs2CEg3wB6d31CtTvPg1zS5NixPLr99jmUmZkZ7tCR/SxIapH57M6nmgUUG6jL4d5HV9GTf9tI6Wex0JyJWjhRMHhThJTMa25FWQ3V5JfSCwyUssacHabJNJtMc+hiKK+kkmY8sJTeXb2X0jntH8BMFbT5vFKvS7euZlBSxgTyHW/PoXO4NEckWzarig/JWsAE9nJKSEI40UFOhkpd345KuXTAhQO60tZXZsnnogDgEMd168iBkjK284g5C2jzrmPMaeHirshYkrIrGgwVqjufu4gJ9z0ZsP3r7R97zCHcF+CoCPYnEraOBkhCvwCS9u/fL5pEnqLAToe93iQsNtWcml/MafBzZGFqSYONn3nmaQGv7dpBVNK3uV8ecE4AlPHjx0cEKOFMuF7IIbRrBy0vdwhRQZIJNeLcZ57Zj8aN82ZBhvNig3NakNRyTpJ7lFRUVHCo9BXmrpXIuDCcNd+RpJOxgu0MAbuJiQ3HW7Bj2YKkYC1lt7MWMDDACbntzymgPtfMpURWmG6fpORB5XiAkMwrrniU+Bu/sVaz/H7F4QqaOv1c+tu/j2GCMcI/DZYJ/kPzoOGNjXvo9oeXUe6xCkrvwSUVeH2XEBd7kDTApgn2IDIW7DlCN0+9jBb8nvVDDIYJ4U56IlDyA4fw5Azax/c/PkAj72AybgZq2KkCNqAZlIsk4Y9BShGXDXj0Z8PokduuEOvpAqx8lIiCJOfafvPsh/R///gBZfRkQi4y/HAWxztkLItLKdmfR5uW3E5XXMCue2TjsYfJsVoI1on+psGBpOaz2/x7Ct4GiNS4D+3bK19OPSXxrjd09sBxkayyslIGSB3Fs+OWEAjn6levXk1QU0bGk2/KvXqWDBjBZwArWAghCxBugVnTR5z3s88+k+PhekU7DFIVjsCmemYRrqllWYBj9OMf/9hDWnf3K9Rrbtsg6fhnt7m9d2ZsAOy+9tpiGZM6p2iVA2/TeQb3FNluAwcO9OgnhXr/sL0FSeFYze5zylqgXlLxFYpgUn3o8Q/ocXiTenEIAZMuh7hqQBmSRZuhCspo8I9x4CmhNMj+QglF/ZA9Slk3XkQX9u9IHZlonMxZWUnt+bjwAslDzx6oyloqq6yjUg7pZecX0xvvf0PPL9tJ2dv2c82yTpTUoT2HuHhpl+0BTOA5QTYX9wNhpdxKyuRtctaoyrTJNgv15ilQcijrSC2Ri4+lKQ8soVff3U3pHGqDK00WPf6cWVGiHVXDCs5JHG5buzCLzj+rS6inDWl7zwTKXrO+w/+X2nVJoXYMTmMkFUYP5fGQcD+LjhTRbTdfTH97ZLR3ogWB+wQjbwcHkprPbgu02Bw8eJCJ3C/z2zbKcqh9YCyEaOukrI0qcwNsI9sNIo/jxo0L6b6o3R2OGh8QJSQgEAgCtwFneu/wkuENI5vzgp8ESQLwky644AI644wzRBQTYA0ADl9uvSWj3I0MPWTU7dmzh3bt2iVq3objFMgrpEkRJHXsAMqQ+h+J1rZB0vHPbmvMg/f555/Ru+++w2rpOq9okV6AIx23BiRhfzxDQ4YMocsvv9wzVkIJnVqQFIknwR7j1LEAvDYABHgo+U3l0LFSuvym5+lQYSWldmD3L8p0SHUyACUAI14A+G/YB+n4zBGmmopqKs8rlwKvKSkJdGa3FOrMQKMTc5viOBSgAj6cDs2k7Jy8Cso5WkQH8kvYf8zH4LfgpMxkaseLF2q6AvqAqF2L0J7UY9MQX3kV61CzeOKSp6bQDUP7qd/GWYxCvVlGNlKvST0zyNzrNuoZquIisykpcaBRiqdKw1UaEixk8uvQi3vT8qcmUQKuK5qNwSsUvtGDi2bMZ6/Bv1j9m8nksvg19M6VVdTQGazrtGbBTOqVyQRe3oxvU8iE+mheEo4dyew2N2AROMT3ESVLoGWDTDZdkBTQuD1+hqsD79PIkaMErJgWTIq+/zbbt29nbsk7DFo6O6E+HM3Xk2T6ajw8CLNoEdx2knWGMCFCKO3ba5o3QBZ4KBUVlRxmKZPMNeyDxRDeI2REucGUNxtKFenxOxS/e/ToyR6zyY63s+V312a3tYyT1FSY8+WXXyYkIqSm4iVNw6WmwoAX9PMnnFmJrEkop4eTDGBBUsufA3uEU8gCiLQJUBBEoG8tKz85QKPGPUvt+3WlFPYGgQIKsCRv5QJPAHr4jZeLrcZIjTfdHxN4dSXzPhhoQNdIDmu4TU6Kf7xksrHuUjxXT0/AWz5vwCRkOD1ESsB5+xcMhHAbh70qGDBU7DhKf/jjOPr5DKgXw8sE2KJ9DrWh/wp+FP4hmPja+7to8h3shejDHjR4zBj9icdMSNu8B19j8b4C+uNvf0j3T4UmUbSb9hJX9+dFW+m+ny+l9LNZ30ZqnzRsdbV1VJJfSW8+M4nGXXEmX5XE3MIxT1QvLNLZbVh03CEtdB6p+cgG8vKTTLjUHY6K5ayzKqnaDh0jw08yx2tK9DHQQodMNxBwu3SBuCV6gdGjz4DJfHMcUE60VO8jPkM/zGdu43uKKTuhZniZTEq/AWrm2HosjcTimcEimpiYRNOmTfPUjmupNhPOYbPbWgaSzP0N5AmFh3HRokXifTeyAKqZpDQH7z2OYcBcJfX3kDUJ0BxKsyApFGvZba0F9NHzTLAaioqhBcu/ohl3vkox3ZI5fJEkYR6ZyGOY7yGeoWogCKrj9LM4ybrCjo7sopnxAYBEARnQSp9yABt5K8J3RkayiKjLRjPYAK5ENDFeHClFRRVUn11Gf3liLP1k8iXSVwEK+Aa8FeIdNKReb5qtgqwrf7SINn/IxN/uXGaCAaGpwyYi3shq41BbXUkVffPeHdSzC3t0otxMSBC2K6+opeRr/kwsUUVJyawA7tdgMYhgFnLI7cZr+9OSPzllJ8TeJ1aLVLitqasCCRbq02jt2sHj4oxqp66f+AfFQ4nFpkRI1wATCHsF09yeJDdgevXVV+nAgQMe4UiEjBHm85cGUO6QerjczZ0C7u+t8oRWeQd39pOGZXzLjyCUiGuBp8EN9sIla7v7aMNtkQFJxqb+YTLUJFyyZIkD2uFNMoWfvXdBx24dvwgUU58+fejGG28MyVNoQVIwT7ndxlrAWEBjTk5ASSd1cfbwn194ezvNfmQ51XNGUHpPzgRiXgSQCXaRoq/s6QGaALABd8lxA/mW5lBkJf9735aVs8EHliPpSq5BMBSZhRYRHFQlzHdqn55Ez/x6BMsNcP0iPoCUKHHOpVVIQocBqhKOcBQ8NTG0/3ARnXnd05TQgcMdTPQFCETafyzCFoB1AGuHimj48H60isN9rSNApFls5vpGs5frvU3fMl+KF3JnfZWF1CGN436Uc8gQdzJ7xZ3Ume3m9UWdOMO9NUASrhZk6pUr33eKvbIcghC41XBuDw08mfC69Os3gK6//vqgDNUYSEIYZMWKFfTFF19ISj6yzsApkVcDJwTmfwI3cNHuqV5Ow1Ca1mJzN8N9wnfwrMB3ggcNXKvRo0dLXTnf46usR0vaiQ+SOvIcBhBhdKI0D1S9dS3jJG3Z8gl70gJlt3ktCs/khAkTpEZeY83/npgxabYHKR/aV5mZncRjHni8qR5YPmfbDh58tfCTgm0WJAVrKbudtQAs4GAY55vHUWOm0l3fFdK1s1+ig19kU9xZnSg1Gd4efrtBar7sDM4RP7DCITKBLM1KqwHQgFcGOWQgYtexcrbwuLEQKNiq44krjoUR5WhaVZfrslUQ7TtGF44aSG88MZHO6I4YvfZViu8KxDFv4iFO+nBuOXXWjA/7L4s/o7v//U3q0CtTFMRj4RkTgITTcIfbMWl8bw79/YnJNHv8eQ6cC/G8IY82X1r6vHc+p1sfWk7pnbhuFEAkFkaPK94pvsu/F3M/5/15MmWxhlW4xPaQuxrCDspJmi8LuCm/oJ4WTVvHd3CFhg0bLoVpW9LefPNN2r17p+gYGeK2F3w4+BIipTyWEeoYOXIknxPeypa1bdu2MQn3XQ6HJEmZkMY8OBraU3K311PkeRIlzIIQm1vSoKGGjobsYLNq9naCY3XJJS2/hsYsAJC0ZctHDm+m4TOAcihVVZVcRHcySx50b5khQ9gbJWq2bt0q4FTLfBg7wgPOvml+wQPgaEntNpTA2bhxg6i7a9Zvw1B/eXmFeHZaApJw2U8//Rfpc1KSCoS6w6wmm1boAgzMUZMPIeNgy81YkBTCwLKbWgs0agGXBwjb/OGVbTT32U2097tijvmwGnZSHBfD5dAbk7WRAQZPkpk2BF44b87CecKveLsTgKThNuMDwt8wudcw8biSw0oc16KLBnWjX7Ca9XT23AhOMYKNkbhdEnrR8B4mubLyGrryjgX0xZ58KZgrXXeKpMov3L9yVrRO4MUqb+09nGGmadW+KbqR6JjvMbDYCIiQXsbQPhbQHDrtRTrMk2ISi0t63i5lNwWoMdzHfJZxOOec3rTjpZv1OsPwtEX+arxHhCfppZcAkrDQOH2X4eINPyHNefjwayOiLvzcc8/xol3RhAaNJgYAiCB7bNas26h79/AWd/cbP0qFwCOwe/duuQ8gaAPwKNdERrXHKG4QZcIv5ru/p8kAKiyg5guL5oABAznjaSjzkCJT38t/DJh+bN78IYOkD0Uc033P5E6KHevZ3tVc1HeSR7gylMyrcMfe+vXrxftilNcBHgyYQNi+srJKniRIIYTbTIHbtLRkl1fcGw7D+VBrrTlPUlPnN3bOzT3GkhZatkRlKlTiwd8TKMXHOQEAYyErawbfF6/2V2Pg3IKkcEeA3c9awGUB4XE4rnl9X4yh/FIWPlu5h15f9jmt3XGEKnPLdBFm4cW4BK4+ztpKKbwIICSmCzey0+Bpwq9KPqzhw1azFABCA/UMUIjBETwjmZwNN+yS02nKjefQhKv6Uzz/TcJaUqfMCc9F4A7BcyWeKHi++HgrN+9jkvrfiNIYIIlgscz0nmsX7YOcUrox6zJa8qRTzV2m22g3JwdPvHSaSXfj/UvoDa5rR51VosC5LRrHVPIU/4m3P1hMGzffT1dedFq0Oxny8Q8fPsxvyc/wZG5qtzmXIW/mOtLy8/M49DWeQwgg6besqQbNa3xLEXILVAAXITHoKcWIWF9CQhLNnDkzLFVjfx4Reg7ghZR9cE3AFQJ4AlCK4/Gt3zXtH80dYjNXbQBcNavPq5cGYSNoQbUXQNC3b1/RzTGFe1tmrcB7u69r1apVXEh3nVNIt+H2taw8j5ce2BDelEjwoIK5puXLl0tWI7K9AMq89lOvs7Hbww//n2AOF3CbDRs20qpVK/na4d0x3mxfyQZIQqAYLaQdwmlue8FztWLFcsl+NNltGop15EkcnI2xi5Dx6af3oltuyfJkSAYaj+iTBUnh3Bm7j7WAnwW8zmSHPOgJc8HZU0O5JeW0bnM2Ldv0NX329VHa9a8iqmIVbipS0CMLtwfo8MElRY6/4vkfBiTJnVLp7NMz6KpzT6Nx1w6kCwd1okzm0RgOjkIEzpKT6SguYqDEoZg7uk+xtP6fB+mdVXspKZ1DgTgLXF8AZbygSjiEf6+sqKPJ1w2ki89mDRMBLcoziXZDSA28KAkw8kS4bTfXKXvrM+qcyiEFBP2AiwQfIUuvRqyEUGERi3LewP296uJe0e5iyMcHqRoiiPCsBOLYgNCMVPe+fQc4Na1CPkWDHQBSEE5TkNTwvilhGkBJq6737t2bFarPDOnE/t4Sf3CARRogCWAJad7Hjh2Tc1VWVgioQLcQgvbypXB69R6g3EhSUrKEKCFtgFpf4B3h95YUqw3mAt2hPvQNoPO77w6IXIHL+edzKHg1UCMP5PHWAknffPMNZWdnC6AQy7k6h37DswR7XnYZ9KLC42ZBh2vfvr3irdP3KN9XJZwHIBjXjszKcJp7HOFnPCsYO01lW5rz4NmCnAXGSCBPpNnOgqRw7ozdx1rA3wK8+NaJcpGqbStdCNo9+C2wHyWnsIKO5pfxVzGiZpTHP1ezWymWpQI6d0xjOQGiHp1TqUuHZOqQFjgsYKJ8wnkS8rQTbhPNoEg0D0wSmBMK1NG+KWiJVG8auyJgMUgsaFgS9ud7IUVtg28nIicp+N6Hv2VrhHcC9a6xN/fGrgQLNwAhvA/wrOILv6MBhMDDhEUfqd74CgTwQj1nOFZ1e7haSvwO5/yR3qe1gFuo/fZm3nqJ+6EeA9s3d30WJIVjVbuPtUAAkCREal6g8dDFSs0w501X/o4vKGIr4droDgVvSFXUFg6QiFlqtEgy3MD5kcNrZop2I1KwxBDO4SVydISccwdc+HBqBmwiEyXwCE3TrqPZxJNu2LwSPWAboeSE9NXpheNuNx4luUPghnHGFsClyd6LZj/DObb/W344x4jGPs0tLs2dM5jrask5fPlJgci8zfUwvM/D7XO4+4XXS+9eTZ23JaCyNa7HP+Ta2DwT6DqCBbMWJLV0hNn9rQU8FnBAkgEqwuVxU0413KP/YFH3ft44hDCaTCIF6UT2AYR0X8UGDhhB/N0FTCJ7YwyPx6FMNXJwc3lyhQCDzqUavlZk++R3NK+BHCBqbO8SPjCXId/VjgqagKak01HtYksO3hqLTij9i1R/InUc/75H67ih2CiUbY9Xf4/XeUOxTSS2Dfc6LUiKhPXtMawFrAWsBawFrAWsBU46C1iQdNLdUntB1gLWAtYC1gLWAtYCkbCABUmRsKI9hrWAtYC1gLWAtYC1wElnAQuSTrpbai/IWsBawFrAWsBawFogEhawICkSVrTHsBawFrAWsBawFrAWOOksYEHSSXdL7QVZC1gLWAtYC1gLWAtEwgIWJEXCivYY1gLWAtYC1gLWAtYCJ50FLEg66W6pvSBrAWsBawFrAWsBa4FIWMCCpEhY0R7DWsBawFrAWsBawFrgpLOABUkn3S21F2QtYC1gLWAtYC1gLRAJC1iQFAkr2mNYC1gLWAtYC1gLWAucdBawIOmku6X2gqwFrAWsBawFrAWsBSJhgf8PQTWmp3L20LsAAAAASUVORK5CYII=;" vertex="1" parent="1">
          <mxGeometry x="750.41" y="860" width="159.18" height="80" as="geometry" />
        </mxCell>
      </root>
    </mxGraphModel>
  </diagram>
</mxfile>
